<?xml version="1.0" encoding="UTF-8"?>
<svg id="Layer_1" data-name="Layer 1" xmlns="http://www.w3.org/2000/svg" xmlns:xlink="http://www.w3.org/1999/xlink" viewBox="0 0 500 500">
  <defs>
    <style>
      .cls-1 {
        fill: #030302;
      }

      .cls-2 {
        fill: #cf9e87;
      }

      .cls-3 {
        fill: #efc3ab;
      }

      .cls-4 {
        fill: #f4d3bc;
      }

      .cls-5 {
        fill: #eb3c27;
      }

      .cls-6 {
        fill: #efddd4;
      }

      .cls-7 {
        fill: #162a64;
      }

      .cls-8 {
        fill: #a96458;
      }

      .cls-9 {
        fill: #e6e6ea;
      }

      .cls-10 {
        fill: #c33029;
      }

      .cls-11 {
        fill: #97d5e0;
      }

      .cls-12 {
        fill: url(#linear-gradient);
      }

      .cls-13 {
        fill: #d46364;
      }

      .cls-14 {
        fill: #d6dfed;
      }

      .cls-15 {
        fill: #fefefe;
      }
    </style>
    <linearGradient id="linear-gradient" x1="250.24" y1="306.53" x2="241.56" y2="421.31" gradientTransform="translate(0 502) scale(1 -1)" gradientUnits="userSpaceOnUse">
      <stop offset="0" stop-color="#180500"/>
      <stop offset="1" stop-color="#32180d"/>
    </linearGradient>
  </defs>
  <path class="cls-10" d="m90.88,384.36C18.67,298.84,26.97,171.54,109.67,96.12c82.7-75.42,210.22-71.99,288.74,7.77,78.52,79.76,79.96,207.31,3.26,288.82-22.09,23.48-49.33,41.5-79.57,52.66-14.94,5.51-30.45,9.29-46.25,11.27-69.91,8.74-139.5-18.46-184.96-72.29Z"/>
  <path class="cls-9" d="m189.35,296.06c6.02-7.16,18.98-18.59,26.33-25.24-1.23,7.44-1.5,10.96-1.07,18.6,10.64,15.96,12.43,27.77,34.78,30.35,12.08-10.38,23.19-11.86,32.49-30.18-.05-4.07.36-6.73.87-10.8l-1.09-7.7c7.17,5.33,21.36,17.8,24.25,25.96,31.86,8.56,64.79,36.8,81.39,65.22,5.3,9.07,10.95,24.93,14.37,30.45-22.09,23.48-49.33,41.5-79.57,52.66-14.94,5.51-30.45,9.29-46.25,11.27-69.91,8.74-139.5-18.46-184.96-72.29,2.22-6.3,4.98-11.72,7.62-17.52,21.99-48.34,43.58-54.26,90.84-70.78Z"/>
  <path class="cls-1" d="m281.66,271.09c7.17,5.33,21.36,17.8,24.25,25.96,3.42,18.1,3.64,27,4.12,45.37,36.48,11.06,31.06,59.7-8.36,65.35-14.11,24.32-25.78,38.55-54.16,44.09-17.11-9.82-36.19-29.93-47.55-46.22,12.28,9.35,23.35,22.29,34.4,33.24l.29-3.69c1.03-4.12,1.87-22.67,2.27-28.3,1.33-18.92,3.64-38.59,4.15-57.45l-8.77-7.09c3.61-6.01,10.9-14.98,15.4-21.59l1.69-.96c12.08-10.38,23.19-11.86,32.49-30.18-.05-4.07.36-6.73.87-10.8l-1.09-7.7Z"/>
  <path class="cls-7" d="m247.69,320.74c6.1,5.85,13.34,12.54,18,19.6l-8.16,8.19c.55,14.72,5.14,57.61,9.24,70.18.12.38.08.79.12,1.18-1.24,7.51-2.3,14.51-2.7,22.13-9.14,11-21.24,4.93-29.83-3.16l.29-3.69c1.03-4.12,1.87-22.67,2.27-28.3,1.33-18.92,3.64-38.59,4.15-57.45l-8.77-7.09c3.61-6.01,10.9-14.98,15.4-21.59Z"/>
  <path class="cls-11" d="m281.87,289.59l12.52,4.22,3.6,2c4.67,16.01,4.49,29.05,5.78,45.57-10.39,3.01-13.37,5.14-21.37,13.51-1.01,1.05-.47.69-1.59,1.22l-1.53.13c-1.64,3.05-3.61,7.52-6.07,9.6-2.73,18.53-3.02,34.86-6.31,54.05-.04-.4,0-.81-.12-1.18-4.1-12.57-8.69-55.46-9.24-70.18l8.16-8.19c-4.66-7.07-11.9-13.75-18-19.6l1.69-.96c12.08-10.38,23.19-11.86,32.49-30.18Z"/>
  <path class="cls-9" d="m298,295.81c4.67,16.01,4.49,29.05,5.78,45.57-10.39,3.01-13.37,5.14-21.37,13.51-1.01,1.05-.47.69-1.59,1.22l-1.53.13c-1.64,3.05-3.61,7.52-6.07,9.6,3.18-19.12,9.86-41.51,15.61-60.15,1.8-5.84,3.83-7.17,9.18-9.88Z"/>
  <path class="cls-15" d="m273.21,365.84c2.46-2.08,4.42-6.56,6.07-9.6l1.53-.13c-8.88,20.2-11.43,39.69,12.88,49.26,1.28.5,2.57,1,3.86,1.48-8.73,15.66-17.42,26.28-33.36,35.17.4-7.62,1.47-14.62,2.7-22.13,3.3-19.19,3.59-35.52,6.31-54.05Z"/>
  <path class="cls-5" d="m282.75,278.79c5.69,3.22,9.6,5.59,12.93,11.28l.22,2.51-1.51,1.24-12.52-4.22c-.05-4.07.36-6.73.87-10.8Z"/>
  <path class="cls-15" d="m300.06,351.57c5.15-.52,9.35-.44,14.2,1.69,6.07,2.67,10.77,7.72,12.99,13.96,2.63,7.06,2.28,14.88-.95,21.69-4.26,8.77-9.84,11.71-18.49,14.58-37.75-.28-35.4-39.55-7.75-51.92Z"/>
  <path class="cls-11" d="m199.74,292.97c5.57-1.99,6.87-5.63,11.32-9,.55,1.94.58,2.45.68,4.42l2.87,1.03c10.64,15.96,12.43,27.77,34.78,30.35l-1.69.96c-4.5,6.61-11.79,15.58-15.4,21.59l8.77,7.09c-.51,18.87-2.82,38.54-4.15,57.45-.4,5.63-1.24,24.19-2.27,28.3-12.77-26.01-14.77-66.08-23.19-94.34-3.7-12.43-4.97-38.93-11.71-47.86Z"/>
  <path class="cls-1" d="m189.35,296.06c6.02-7.16,18.98-18.59,26.33-25.24-1.23,7.44-1.5,10.96-1.07,18.6l-2.87-1.03c-.09-1.97-.12-2.49-.68-4.42-4.45,3.37-5.74,7.01-11.32,9-12.65,13.84-16.51,36.67-19.39,54.46,10.74,4.97,13.83,9.99,16.42,21.3-2.17,7.36-4.15,13.18-11.25,17.28-9.37,5.42-21.77,1.27-26.58-8.13-2.53-5.03-2.82-10.88-.82-16.14,3.21-8.35,8.52-12.31,16.83-14.49,3.68-22.71,4.21-30.46,14.39-51.19Z"/>
  <path class="cls-9" d="m173.68,353.26c6.72,1.16,12.11,1.54,15.54,8.31,5.36,10.59-1.62,18.22-10.53,22.68-14.76,3.87-25.27-19.21-5.01-30.99Z"/>
  <path class="cls-14" d="m275.84,456.65l1-2.52c10.46-3.13,31.15-6.75,42.53-9.65.91.3,1.82.6,2.73.9-14.94,5.51-30.45,9.29-46.25,11.27Z"/>
  <path class="cls-4" d="m173.17,108.1c7.41-5.45,17.3-13.21,25.07-17.6,19.12-10.79,46.72-12.52,68.16-9.56,14.54,2.01,34.86,9.36,44.16,22.02,12.36,16.83,5.42,51.27,4.5,71.5-.1.4-.19.81-.28,1.21,13.07,12.99,7.23,36.93-4.93,48.35-1.21,1.13-2.45,2.23-3.71,3.31-1.43,13.24-11.74,38.1-24.48,43.76l1.09,7.7c-.51,4.07-.93,6.72-.87,10.8-9.31,18.32-20.41,19.8-32.49,30.18-22.35-2.59-24.13-14.4-34.78-30.35-.43-7.64-.16-11.16,1.07-18.6-19.11-6.72-24.33-28.51-26.64-46.09-15.34-6.95-17.97-24.12-16.31-39.59.34-3.2,3.28-7.69,5.01-10.51-4.41-13.54-4.5-51.16-4.56-66.53Z"/>
  <path class="cls-12" d="m173.17,108.1c7.41-5.45,17.3-13.21,25.07-17.6,19.12-10.79,46.72-12.52,68.16-9.56,14.54,2.01,34.86,9.36,44.16,22.02,12.36,16.83,5.42,51.27,4.5,71.5-.1.4-.19.81-.28,1.21-5.11,4.86-5.82,14.02-11.07,22.08-.8-16.7-3.62-56.42-6.19-71.73-1.79.92-3.6,1.82-5.42,2.7-34.03,16.29-64.72,13.53-99.26,1.33-.73,11.25-.53,27.6-2.21,38.3-.21,6.74-.64,19.3-2.29,25.42l-.75.58c-.73-1.89-1.25-3.17-1.77-5.12-3.98-7.93,1.38-10.29-8.09-14.58-4.41-13.54-4.5-51.16-4.56-66.53Z"/>
  <path class="cls-1" d="m185.82,189.21c2.17-3.2,4.6-27.6,3.82-29.1.77.96.87,6.52,1,8.22-.21,6.74-.64,19.3-2.29,25.42l-.75.58c-.73-1.89-1.25-3.17-1.77-5.12Z"/>
  <path class="cls-3" d="m215.67,270.82c3.76,2.3,12.97,8.88,15.86,10.18,11.04,2.36,24.86,4.45,35.81.85,4.2-3.01,8.75-6.03,13.04-8.96l1.28-1.8,1.09,7.7c-.51,4.07-.93,6.72-.87,10.8-9.31,18.32-20.41,19.8-32.49,30.18-22.35-2.59-24.13-14.4-34.78-30.35-.43-7.64-.16-11.16,1.07-18.6Z"/>
  <path class="cls-2" d="m231.53,281c11.04,2.36,24.86,4.45,35.81.85l.98,1.52c-11.41,8.38-26.29,6.36-36.79-2.37Z"/>
  <path class="cls-2" d="m267.34,281.85c4.2-3.01,8.75-6.03,13.04-8.96-3.24,5-7.06,7.19-12.06,10.48l-.98-1.52Z"/>
  <path class="cls-15" d="m226.01,240.55c1.42-.36,40.28-1.32,41.05-.99l1.73-.37c0,2.46-3.31,6.16-5.05,8.63-11.5,13.59-24.62,13.01-36.34,0-1.45-2.93-2.37-4.33-2.84-7.61l1.45.33Z"/>
  <path class="cls-13" d="m232.48,245.58c9.53,3.17,14.28,3.36,24.11.7,2.89.45,4.29.67,7.16,1.54-11.5,13.59-24.62,13.01-36.34,0,1.54-.35,3.58-1.51,5.08-2.24Z"/>
  <path class="cls-8" d="m267.06,239.56l1.73-.37c0,2.46-3.31,6.16-5.05,8.63-2.87-.87-4.27-1.09-7.16-1.54,4.4-2.35,6.43-3.77,10.48-6.72Z"/>
  <path class="cls-8" d="m227.4,247.83c-1.45-2.93-2.37-4.33-2.84-7.61l1.45.33c2.24,1.93,3.91,3.51,6.47,5.03-1.5.73-3.53,1.89-5.08,2.24Z"/>
  <path class="cls-1" d="m281.86,201.67c-19.7,9.5-20.57-34.91.11-19.46.56,3,.65,1.45-1.39,4.69l2.91-.66.81-1.66c2.96-.32,1.67-.69,4.02,1.05,2.37,6.24,3.28,16.78-6.45,16.04Z"/>
  <path class="cls-6" d="m283.49,186.24l.81-1.66c2.96-.32,1.67-.69,4.02,1.05,2.37,6.24,3.28,16.78-6.45,16.04,3.74-6.45,3.03-8.05,1.62-15.43Z"/>
  <path class="cls-1" d="m215.63,172.13c7.66-.31,9.72,4.99,16.2,6.47-7.82,4.49-1.38,3.79-4.37,9.28-1.2,5.68-4.14,16.51-11.41,14.66-6.14-5.6-6.43-17.24-2.16-23.8,1.46-1.71,2.09-4.39,1.75-6.61Z"/>
  <path class="cls-6" d="m215.63,172.13c7.66-.31,9.72,4.99,16.2,6.47-7.82,4.49-1.38,3.79-4.37,9.28-2.96-8.78-4.23-9.39-13.57-9.14,1.46-1.71,2.09-4.39,1.75-6.61Z"/>
  <path class="cls-1" d="m195.93,175.76c4.94-4.81,10.83-11.27,17.66-13.03,8.4-2.17,19.3,7.35,18.24,15.88-6.48-1.48-8.54-6.78-16.2-6.47-7.39,1.84-12.11,2.6-19.7,3.62Z"/>
  <path class="cls-1" d="m269.42,164.54c7.99-.97,19.84.4,21.62,10l-1.27,1.22c-3.05.15-4.78-1.29-7.5-2.83-9.58-1.54-11.69,5.05-18.9,3.84l-.79-1.93c1.14-5.94,2.07-6.32,6.84-10.29Z"/>
  <path class="cls-3" d="m245.04,200.46c2.58,5.38,4.78,14.54,4.14,20.71-2.11,3.41-1.93,2.49-6.37,4.48-.98-1.4-.7-.6-.74-2.44l4.8-.52c1.45-1.88-2.01-13.63-1.87-20.79l.04-1.44Z"/>
</svg>