<?xml version="1.0" encoding="UTF-8"?>
<svg id="Layer_1" data-name="Layer 1" xmlns="http://www.w3.org/2000/svg" xmlns:xlink="http://www.w3.org/1999/xlink" viewBox="0 0 425.67 425.65">
  <defs>
    <style>
      .cls-1 {
        fill: url(#linear-gradient-2);
      }

      .cls-2 {
        fill: #f3cab7;
      }

      .cls-3 {
        fill: #7c7575;
      }

      .cls-4 {
        fill: #11120e;
      }

      .cls-5 {
        fill: #c8c6c6;
      }

      .cls-6 {
        fill: #e0b09f;
      }

      .cls-7 {
        fill: #af7872;
      }

      .cls-8 {
        fill: #040204;
      }

      .cls-9 {
        fill: #3ba1d9;
      }

      .cls-10 {
        fill: #21254f;
      }

      .cls-11 {
        fill: #dca18a;
      }

      .cls-12 {
        fill: #eb3c27;
      }

      .cls-13 {
        fill: #953528;
      }

      .cls-14 {
        fill: #a5322d;
      }

      .cls-15 {
        fill: #e6e6ea;
      }

      .cls-16 {
        fill: #97d5e0;
      }

      .cls-17 {
        fill: url(#linear-gradient-3);
      }

      .cls-18 {
        fill: url(#linear-gradient);
      }
    </style>
    <linearGradient id="linear-gradient" x1="244.34" y1="787.93" x2="160.75" y2="825.83" gradientTransform="translate(0 -643.22)" gradientUnits="userSpaceOnUse">
      <stop offset="0" stop-color="#ecba9c"/>
      <stop offset="1" stop-color="#f4d9c3"/>
    </linearGradient>
    <linearGradient id="linear-gradient-2" x1="249.56" y1="842.88" x2="235.71" y2="812.89" gradientTransform="translate(0 -643.22)" gradientUnits="userSpaceOnUse">
      <stop offset="0" stop-color="#dec1aa"/>
      <stop offset="1" stop-color="#f1eee6"/>
    </linearGradient>
    <linearGradient id="linear-gradient-3" x1="161.15" y1="843.22" x2="184.56" y2="813.19" gradientTransform="translate(0 -643.22)" gradientUnits="userSpaceOnUse">
      <stop offset="0" stop-color="#e3c4b3"/>
      <stop offset="1" stop-color="#f2eae4"/>
    </linearGradient>
  </defs>
  <path class="cls-16" d="m41.58,339.2C-23.85,250.52-10.77,126.56,71.74,53.5c82.5-73.07,207.13-71.06,287.25,4.61,80.11,75.68,89.2,200,20.95,286.52-37.27,47.25-92.81,76.52-152.86,80.54-12.31.82-24.67.58-36.94-.74-59.27-6.36-113.16-37.28-148.56-85.25v.02Z"/>
  <path class="cls-12" d="m191.07,38.38c14.28-3,28.68-3.39,42.91.21,38.54,11.47,61.34,42.79,64.61,82.81.2,2.39,1.76,2.55,3.93,3.02,2.55,2.89,2.48,2.63,3.07,6.42-2.18,10.03-16.29,11.12-19.22,18.67-1.67,5.61-6.49,26.14-7.92,29.59l-.56,2.09c-2.34,2.72-9.26,8.19-10.07,9.49-3.22,6.47-4.21,9.88-11.99,12.51-10.11,3.42-24.94,2.27-35.14-1.18-3.98-1.35-4.54-5.88-5.78-9.06-1.78-4.56-1.09-4.55-4.9-6.71-12.74.81-5.47,19.34-24.39,18.04-11.43-.79-25.42,3.76-34.4-5.75-1.42-5.97-1.94-11.66-2.64-17.75-4.5-1.59-7.28-2.25-11.97-3.34-1.84-10.41-4.52-20.89-4.31-31.3-5.35-4.49-12.64-4.29-18.92-13.27-.61-3.45-1-2.01.64-4.59,3.7-2.09,3.98-2.02,8.32-2.42,1.16-2.13,3.16-16.04,4.08-19.52,9.23-34.89,30.65-56.74,64.64-67.95h.01Z"/>
  <path class="cls-8" d="m132.32,146.13c9.52,3.47,17.44,4.5,27.39,6.27,1.58.26,2.37.19,3.69.88,3.28-.89,29.42.45,33.12,1.07l7.05.15c4.64.18,5.57-.6,8.68,1.59.86,3.23.79,3.66.92,6.9.11-2.99-.2-5.18,1.5-7.54,8.19-1.39,26.52-2.05,35.05-1.93,3.91-.04,9.19.15,12.89-.68,1.74-1.21,21.77-3.8,23.77-3.34-1.67,5.61-6.49,26.14-7.92,29.59l-.56,2.09c-2.34,2.72-9.26,8.19-10.07,9.49-3.22,6.47-4.21,9.88-11.99,12.51-10.11,3.42-24.94,2.27-35.14-1.18-3.98-1.35-4.54-5.88-5.78-9.06-1.78-4.56-1.09-4.55-4.9-6.71-12.74.81-5.47,19.34-24.39,18.04-11.43-.79-25.42,3.76-34.4-5.75-1.42-5.97-1.94-11.66-2.64-17.75-4.5-1.59-7.28-2.25-11.97-3.34-1.84-10.41-4.52-20.89-4.31-31.3h.01Z"/>
  <path class="cls-18" d="m159.7,152.4c1.58.26,2.37.19,3.69.88,3.28-.89,29.42.45,33.12,1.07l7.05.15c4.64.18,5.57-.6,8.68,1.59.86,3.23.79,3.66.92,6.9.11-2.99-.2-5.18,1.5-7.54,8.19-1.39,26.52-2.05,35.05-1.93,3.81,2.34,9.54,4.6,9.75,9.28-.93,2.05-2.46,4.99-2.91,7.07-11.05-.42-32.15-5.07-37.21,7.04l-.98,1.43c-10.78.4-9.01,6.06-17.02,1.29-1.9,2.04-1.96,3.86-2.81,6.79-5.74-4.42-4.85-5.83-4.49-12.99-14.72-2.77-20.01-2.99-34.94-1.69-2.45.68-3.79.03-6.32-.59-.52-8.62.81-12.77,6.92-18.76h0Z"/>
  <path class="cls-8" d="m213.16,163c.11-2.99-.2-5.18,1.5-7.54,8.19-1.39,26.52-2.05,35.05-1.93,3.81,2.34,9.54,4.6,9.75,9.28-3.98.78-13.16.55-17.7.45-6.75-.14-23.99,3-28.6-.26h0Z"/>
  <path class="cls-4" d="m163.39,153.28c3.28-.89,29.42.45,33.12,1.07l-7.96.81c3.35,3.34,4.24,3.15,2.75,8.3-9.19-.55-21.47,1.27-27.64-1.44-1.91-3.43-.95-3.79-.27-8.74h0Z"/>
  <path class="cls-8" d="m196.51,154.36l7.05.15c-.34,3.63-.07,6.64-2.37,9.24-3.18,1.27-6.36.27-9.89-.29,1.49-5.15.6-4.96-2.75-8.3l7.96-.81h0Z"/>
  <path class="cls-8" d="m159.1,171.75c6.93-5.47,29.03-4.98,34.94,1.69-14.72-2.77-20.01-2.99-34.94-1.69Z"/>
  <path class="cls-1" d="m219.34,176.92c5.05-12.1,26.16-7.46,37.21-7.04,2.69,1.73,3.89,2.25,6.16,4.51l2.68,1.79c1.47,3.57.24,9.4-1.14,12.98-5.1,13.15-25.95,15.3-37.26,10.98-8.67-3.31-9.45-13.79-8.62-21.8l.98-1.43h0Z"/>
  <path class="cls-4" d="m219.34,176.92c5.05-12.1,26.16-7.46,37.21-7.04,2.69,1.73,3.89,2.25,6.16,4.51-13.26-2.31-31.91-6.36-43.36,2.53h0Z"/>
  <path class="cls-5" d="m236.44,191.75c-3.52-.65-3.89-1.33-6.43-3.64-3.12-11.09,27.45-18.72,17.64,3.71-2.39,1.73-2.2,1.84-5.1,1.97l-1.75-.86-4.36-1.18h0Z"/>
  <path class="cls-8" d="m236.44,191.75c0-5.72-.88-5.55,1.59-9.75l2.38-.99c3.35,1.46,1.97.36,4.06,3.66.51,4.35-.15,5.68-3.67,8.26l-4.36-1.18Z"/>
  <path class="cls-17" d="m152.78,171.16c2.52.62,3.87,1.28,6.32.59,14.93-1.3,20.22-1.08,34.94,1.69-.36,7.17-1.25,8.57,4.49,12.99-1.51,5.95-2.09,10.94-8.62,13.08-9.58,3.15-24.95,2.74-34.03-1.61-3.75-5.27-2.63-19.04-3.1-26.74h0Z"/>
  <path class="cls-3" d="m175.2,180.42l-3.79-.45.38-1.01c18.35-4.43,19.49,9.45,11.6,15.32l-.27-.49.31-.28-2.23-1.36-4.55.67c-3.32-1.79-1.97-.57-4.01-3.97-.05-5.8-.71-3.55,2.56-8.44h0Z"/>
  <path class="cls-8" d="m175.2,180.42l1.5-1.42c1.39.73,2.77,1.47,4.14,2.23.69,4.88.79,6.03.36,10.92l-4.55.67c-3.32-1.79-1.97-.57-4.01-3.97-.05-5.8-.71-3.55,2.56-8.44h0Z"/>
  <path class="cls-5" d="m180.84,181.23l1.89-.92c3.96,2.43,2.58,9.71.7,13.2l-2.23-1.36c.43-4.89.33-6.04-.36-10.92Z"/>
  <path class="cls-2" d="m262.61,152.85c5.04,7.65,3.73,14.17,2.78,23.33l-2.68-1.79c-2.26-2.26-3.47-2.78-6.16-4.51.46-2.08,1.98-5.02,2.91-7.07-.21-4.68-5.94-6.94-9.75-9.28,3.91-.04,9.19.15,12.89-.68h0Z"/>
  <path class="cls-14" d="m302.52,124.42c2.55,2.89,2.48,2.63,3.07,6.42-2.18,10.03-16.29,11.12-19.22,18.67-2.01-.45-22.03,2.13-23.77,3.34-3.7.83-8.98.65-12.89.68-8.54-.12-26.86.53-35.05,1.93-1.7,2.36-1.39,4.56-1.5,7.54-.13-3.24-.06-3.67-.92-6.9-3.12-2.19-4.05-1.41-8.68-1.59l-7.05-.15c-3.7-.62-29.83-1.96-33.12-1.07-1.31-.7-2.1-.63-3.69-.88-9.94-1.77-17.87-2.81-27.39-6.27-5.35-4.49-12.64-4.29-18.92-13.27-.61-3.45-1-2.01.64-4.59,3.7-2.09,3.98-2.02,8.32-2.42,7.36,3.6,88.86,2.86,104.74,3.72,19.23,1.05,56.03-2.8,75.44-5.15h-.01Z"/>
  <path class="cls-13" d="m191.07,38.38c14.28-3,28.68-3.39,42.91.21,1.07,22.18.37,49.23.31,71.84-10.72,3.9-33.17,6.75-42.39-.96-3.01-6.17-2.27-62.24-.82-71.08h0Z"/>
  <path class="cls-15" d="m173.24,274.04c6.25,4.49,22.9,18.61,28.13,20.52l-1.09,4.58c6.06,3.33,14.17,3.95,19.67-.76l.55.75c1.41,5.49,3.34,10.61,2.37,16.03-1.39,2.18-1.33,2.13-3.28,3.82-1.6,22.54,5.45,60.37,6.11,84.13.18,6.45,1.81,16,1.37,22.07-12.31.82-24.67.58-36.94-.74-59.27-6.36-113.16-37.28-148.56-85.25,48.86-50.79,70.16-44.19,131.65-65.15h.02Z"/>
  <path class="cls-10" d="m200.28,299.14c6.06,3.33,14.17,3.95,19.67-.76l.55.75c1.41,5.49,3.34,10.61,2.37,16.03-1.39,2.18-1.33,2.13-3.28,3.82-1.6,22.54,5.45,60.37,6.11,84.13.18,6.45,1.81,16,1.37,22.07-12.31.82-24.67.58-36.94-.74,1.07-11.53,11.21-103.15,9.67-107.68l-3.98.4-1.3-1.14c.45-5.78,3.41-11.42,5.75-16.89h.01Z"/>
  <path class="cls-15" d="m252.53,273.19c4.35,4.12,33.99,11.26,42.08,13.55,39.11,11.09,57.66,29.38,85.33,57.89-37.27,47.25-92.81,76.52-152.86,80.54.44-6.07-1.19-15.62-1.37-22.07-.66-23.76-7.71-61.59-6.11-84.13,1.95-1.68,1.89-1.64,3.28-3.82.97-5.42-.96-10.54-2.37-16.03.17-1.52.42-2.06.85-3.54,11.16-5.58,21.37-15.01,31.17-22.4h0Z"/>
  <path class="cls-2" d="m151.23,198.51c8.97,9.51,22.97,4.96,34.4,5.75,18.91,1.3,11.64-17.23,24.39-18.04,3.81,2.16,3.12,2.15,4.9,6.71,1.24,3.19,1.81,7.71,5.78,9.06,10.2,3.46,25.03,4.6,35.14,1.18,7.78-2.63,8.76-6.05,11.99-12.51,2.92,6.13,1.65,12.78-.26,19.15-1.59,5.19-2.09,7.98-2.96,13.37-2.12,5.88-4.95,11.48-8.44,16.67-4.08,13.61-.51,25.51-3.63,33.34-9.8,7.39-20.01,16.82-31.17,22.4-.43,1.47-.68,2.02-.85,3.54l-.55-.75c-5.5,4.71-13.62,4.09-19.67.76l1.09-4.58c-5.23-1.92-21.88-16.03-28.13-20.52-2.22-9.19-3.13-16.88-6.09-26.16-6-7.67-9.07-15.3-12.69-24.24-1-7.91-6.15-19.76-3.23-25.13h-.02Z"/>
  <path class="cls-6" d="m167.15,247.88c9.42,4.11,18.67,16.76,34.59,18.76,26.21,3.3,35.78-12.83,53.36-26.01l1.06-.78c-4.08,13.61-.51,25.51-3.63,33.34-9.8,7.39-20.01,16.82-31.17,22.4-.43,1.47-.68,2.02-.85,3.54l-.55-.75c-5.5,4.71-13.62,4.09-19.67.76l1.09-4.58c-5.23-1.92-21.88-16.03-28.13-20.52-2.22-9.19-3.13-16.88-6.09-26.16h0Z"/>
  <path class="cls-9" d="m201.37,294.57c7.04,1.77,10.65,1.23,17.88.79.25.99.57,2.04.7,3.03-5.5,4.71-13.62,4.09-19.67.76l1.09-4.58h0Z"/>
  <path class="cls-7" d="m226.8,223.76c-3.36,11.93-24.72,7.94-33.04,6.19l-.5-1.84c7.15-3.19,14.96,7.04,33.54-4.34h0Z"/>
  <path class="cls-6" d="m200.33,239.24c5.42.93,9.78-.68,12.82,2.11-6.33,2-7.52,1.94-12.82-2.11h0Z"/>
  <path class="cls-6" d="m148.59,180.77c.7,6.09,1.21,11.77,2.64,17.75-2.92,5.37,2.23,17.22,3.23,25.13-1.59-1.46-3.17-2.94-4.73-4.43-10.37-9.86-26.42-28.11-13.09-41.79,4.69,1.09,7.46,1.75,11.97,3.34h-.02Z"/>
  <path class="cls-6" d="m278.46,179.09c18.95,12.24-4.71,34.58-13.86,44.09.87-5.39,1.37-8.18,2.96-13.37,1.91-6.37,3.19-13.02.26-19.15.81-1.3,7.74-6.78,10.07-9.49l.56-2.09h0Z"/>
  <path class="cls-11" d="m267.82,190.67c.81-1.3,7.74-6.78,10.07-9.49,2.52,5.66,1.84,8.64-.56,14.36-1.67,3.98-5.43,13.34-9.78,14.28,1.91-6.37,3.19-13.02.26-19.15h0Z"/>
</svg>