<?xml version="1.0" encoding="UTF-8"?>
<svg id="Layer_1" data-name="Layer 1" xmlns="http://www.w3.org/2000/svg" viewBox="0 0 500 500">
  <defs>
    <style>
      .cls-1 {
        fill: #f4cabc;
      }

      .cls-2 {
        fill: #281e1a;
      }

      .cls-3 {
        fill: #1e0901;
      }

      .cls-4 {
        fill: #8c749c;
      }

      .cls-5 {
        fill: #664f4e;
      }

      .cls-6 {
        fill: #521c1d;
      }

      .cls-7 {
        fill: #d19980;
      }

      .cls-8 {
        fill: #27559a;
      }

      .cls-9 {
        fill: #ead0c1;
      }

      .cls-10 {
        fill: #b67664;
      }

      .cls-11 {
        fill: #010101;
      }

      .cls-12 {
        fill: #dcb6ab;
      }

      .cls-13 {
        fill: #863821;
      }

      .cls-14 {
        fill: #fefefe;
      }
    </style>
  </defs>
  <path class="cls-4" d="m117.46,414.66c-70.5-56.74-97.05-152.07-66.03-237.09C82.44,92.55,164.13,36.7,254.61,38.68c90.48,1.97,169.66,61.33,196.94,147.61,27.28,86.29-3.41,180.37-76.31,233.99-77.25,56.82-183.08,54.51-257.78-5.62Z"/>
  <path class="cls-8" d="m147.31,352.39c18.85,19.46,69.31,27.64,95.45,28.15,30.72.6,76.57-9.38,101.54-27.69,18.74,13.9,26.07,46.8,30.93,67.43-77.25,56.82-183.08,54.51-257.78-5.62.18-2.75.55-5.48,1.13-8.17,3.63-17.52,13.13-43.8,28.72-54.09Z"/>
  <path class="cls-1" d="m230.01,155.99c6.63-13.25,3.05-14.92,19.54-14.96,6.5,4.93,22.56,32.59,27.23,40.82.01.61.1,1.8-.04,2.33,5.95,3.5,18.72,19.77,18.58,26.51,3.6,5.94,7.26,11.84,10.98,17.71l1.57,4.53c-4.75,11.34-27.34,42.46-37.66,48.78-9.3,4.98-13.96,8.21-24.33,9.99-7.66-2.38-14.03-4.85-21.51-7.79-11.55-5.43-20.89-16.62-25.38-28.46l-2.5-2.64c-7.83-6.79-10.2-15.24-13.35-24.7,3.35-4.27,4.56-5.8,8.61-9.34l1.85-.38.76-2.2c1.54-3.13,4.2-6.64,6.24-9.58,1.7-2.76,3.24-5.46,6.33-6.46.8-5.06,4.52-10.47,9.63-11.85-.41-.11-1.93-.91-2.37-1.13l1.12-2.58c4.51-6.67,11.27-21.16,14.71-28.6Z"/>
  <path class="cls-9" d="m191.75,218.76c3.23,3.77,5.25,28.81,4.73,34.04-7.83-6.79-10.2-15.24-13.35-24.7,3.35-4.27,4.56-5.8,8.61-9.34Z"/>
  <path class="cls-11" d="m206.93,200.14c7.91-1.95,12.34-1.28,18.28,4.57l.38,2.05c-2.44,2.18-2.4,1.92-5.7,2.42-2.1-1.95-2.4-3.4-3.43-6.06l-1.8-1.02-2.14.84-.48,1.73c-.58,2.04-.84,2.66-1.82,4.6-4.03.94-5.98-.52-9.62-2.68,1.7-2.76,3.24-5.46,6.33-6.46Z"/>
  <path class="cls-2" d="m295.32,210.68c-8.65-9.8-12.31-27.53-27.65-22.03l-6.39,2.29-.49-1.51c2.61-6.44,10.01-5.87,15.95-5.26,5.95,3.5,18.72,19.77,18.58,26.51Z"/>
  <path class="cls-7" d="m191.75,218.76l1.85-.38.76-2.2c2.09,7.55,3.84,30.58,4.63,39.27l-2.5-2.64c.52-5.23-1.5-30.27-4.73-34.04Z"/>
  <path class="cls-3" d="m215.3,184.59c5.29.22,8.49-.12,13.16,2.32l1.1,1.53c-3.29,2.67-8.96.69-13-.15-.41-.11-1.93-.91-2.37-1.13l1.12-2.58Z"/>
  <path class="cls-11" d="m268.7,197.66c5.85.84,21.09,2.17,20.32,10.07l-1.53.77-3.28-2.24-1.86,2.17c-3.44.82-1.87,1-4.86-.07-.26-4.05.37-5.74-3.71-6.75l-1.55,1.04c-.4,2.48-.75,4.98-1.07,7.47l-1.72.96c-3.77-.85-6.63-3.07-7.04-6.92,1.76-3.79,2.68-4.03,6.32-6.5Z"/>
  <path class="cls-13" d="m262.17,257.15c1.05-.06.42-.11,1.84.44-8.23,7.33-18.39,6.63-28.35,4.53-2.65-1.27-2.87-1.18-4.9-3.22,2.45-2.26,24.61-1.26,31.42-1.74Z"/>
  <path class="cls-10" d="m250.59,217.33c2.46,5.46.06,10.58-1.77,16.16-1.65-3.95.77-11.49,1.77-16.16Z"/>
  <path class="cls-13" d="m239.89,88.97l7.97-.29,1.87,1.43c1.29,15.16-3.17,34.39-.18,50.92-16.48.04-12.91,1.72-19.54,14.96-3.44,7.43-10.2,21.92-14.71,28.6l-1.12,2.58c.44.22,1.97,1.01,2.37,1.13-5.11,1.37-8.82,6.78-9.63,11.85-3.09.99-4.64,3.7-6.33,6.46-2.03,2.94-4.69,6.45-6.24,9.58l-.76,2.2-1.85.38c-4.05,3.55-5.26,5.08-8.61,9.34-10.5,12.62-31.7,27.31-45.83,36.53-5.13-9.69-9.43-21.76-9.97-32.74-2.73-55.37,55.8-138.8,112.54-142.92Z"/>
  <path class="cls-6" d="m239.89,88.97l7.97-.29,1.87,1.43c1.29,15.16-3.17,34.39-.18,50.92-16.48.04-12.91,1.72-19.54,14.96-.77-6.09,4.59-13.75,8.28-18.16,1.79-14.93,1.32-33.42,1.59-48.86Z"/>
  <path class="cls-13" d="m247.86,88.68c57.74-9.07,106.62,73.78,114.01,121.19,2.25,14.45,1.73,27.83-2.06,41.93-6.84-13.16-9.49-15.27-25.52-17.75-9.23-1.43-18.91-3.47-28-5.66-3.72-5.87-7.38-11.77-10.98-17.71.14-6.73-12.63-23.01-18.58-26.51.13-.53.05-1.71.04-2.33-4.67-8.23-20.73-35.9-27.23-40.82-2.98-16.52,1.48-35.75.18-50.92l-1.87-1.43Z"/>
  <path class="cls-14" d="m245.87,291.69c10.37-1.79,15.03-5.02,24.33-9.99-2.74,11.16-1,20.33-2.5,30.47l2.01,6.97.89,3.74.76-.26c2.03,4.56,2.58,4.64,6.35,7.84l2.43.14c5.02,3.27,26.38,8.79,33.55,11.2,10.62,3.56,20.03,6.51,30.6,11.07-24.97,18.31-70.83,28.29-101.54,27.69-26.13-.51-76.6-8.69-95.45-28.15,12.19-7.67,46.4-15.82,61.4-19.22,9.93-2.01,15.7-5.27,16.94-15.81l-.05-24.21-1.24-9.26c7.48,2.94,13.85,5.41,21.51,7.79Z"/>
  <path class="cls-1" d="m245.87,291.69c10.37-1.79,15.03-5.02,24.33-9.99-2.74,11.16-1,20.33-2.5,30.47l2.01,6.97.89,3.74.76-.26c2.03,4.56,2.58,4.64,6.35,7.84-10.52,27.08-52.53,20.28-69,2.71,9.93-2.01,15.7-5.27,16.94-15.81l-.05-24.21-1.24-9.26c7.48,2.94,13.85,5.41,21.51,7.79Z"/>
  <path class="cls-12" d="m245.87,291.69c10.37-1.79,15.03-5.02,24.33-9.99-2.74,11.16-1,20.33-2.5,30.47l2.01,6.97.89,3.74c-4.83-.25-11.45-5.68-15.25-8.8-11.76-6.59-21.15-10.51-29.75-20.92l-1.24-9.26c7.48,2.94,13.85,5.41,21.51,7.79Z"/>
  <path class="cls-9" d="m255.35,314.07l-1.93-3.1c.27-4.21,9.1-9.78,13.7-14.2-.02,5.52-.17,9.9.58,15.41l2.01,6.97.89,3.74c-4.83-.25-11.45-5.68-15.25-8.8Z"/>
  <path class="cls-3" d="m306.3,228.39c9.09,2.19,18.77,4.24,28,5.66,16.02,2.48,18.68,4.59,25.52,17.75-5.4,10.79-13.56,23.1-21.88,31.79-16.88,21.61-42.82,29.65-68.23,35.55l-2.01-6.97c1.5-10.14-.24-19.32,2.5-30.47,10.33-6.31,32.92-37.44,37.66-48.78l-1.57-4.53Z"/>
  <path class="cls-6" d="m306.3,228.39c9.09,2.19,18.77,4.24,28,5.66,16.02,2.48,18.68,4.59,25.52,17.75-5.4,10.79-13.56,23.1-21.88,31.79.12-2.63.76-13.22.33-14.93-4.86-19.33-22.86-13.33-30.4-35.74l-1.57-4.53Z"/>
  <path class="cls-3" d="m137.31,264.63c14.13-9.22,35.33-23.91,45.83-36.53,3.15,9.46,5.52,17.91,13.35,24.7l2.5,2.64c4.49,11.83,13.82,23.03,25.38,28.46l1.24,9.26.05,24.21c-39.36-4.56-66.66-17.97-88.35-52.73Z"/>
  <path class="cls-5" d="m271.36,322.61l1.72-1.59c2.66,3.29,4.39,6.51,7.06,9.56l-2.43-.14c-3.77-3.2-4.32-3.28-6.35-7.84Z"/>
</svg>