<?xml version="1.0" encoding="UTF-8"?>
<svg id="Layer_1" data-name="Layer 1" xmlns="http://www.w3.org/2000/svg" xmlns:xlink="http://www.w3.org/1999/xlink" viewBox="0 0 500 500">
  <defs>
    <style>
      .cls-1 {
        fill: #f4cabc;
      }

      .cls-2 {
        fill: #e18c88;
      }

      .cls-3 {
        fill: #e6e6ea;
      }

      .cls-4 {
        fill: url(#linear-gradient);
      }

      .cls-5 {
        fill: #27a5cc;
      }

      .cls-6 {
        fill: #010101;
      }
    </style>
    <linearGradient id="linear-gradient" x1="125.11" y1="168.97" x2="366.16" y2="273.1" gradientTransform="translate(0 502) scale(1 -1)" gradientUnits="userSpaceOnUse">
      <stop offset="0" stop-color="#250301"/>
      <stop offset="1" stop-color="#511611"/>
    </linearGradient>
  </defs>
  <path class="cls-3" d="m113.35,408.78c-66.29-57.05-90.16-149.27-59.88-231.32C83.76,95.41,161.82,40.81,249.28,40.51c87.46-.3,165.9,53.76,196.74,135.6,30.85,81.83,7.61,174.22-58.28,231.73-28.34,24.73-62.82,41.38-99.82,48.19-62.34,11.47-126.52-5.9-174.57-47.25Z"/>
  <path class="cls-4" d="m130.86,359.08c2.44-29.53,22.63-39.18,28.49-64.99,3.13-13.8-1.44-42.77-2.61-58.22-3.41-45.18,10.63-100.71,45.34-131.93,7.75-6.16,16.39-12.21,26.59-12.73,2.52-.13,10.64-.1,12.11-.67,29.5-11.37,55.85,2.13,75.28,25.6,23.43,28.3,25.88,65.64,20.89,100.98-2.89,26.71-13.88,59.89-5.73,85.11,16.81,16.79,37.63,33.55,36.11,60.91,16.53,21.24,11.75,27.23,20.42,44.68-28.34,24.73-62.82,41.38-99.82,48.19-62.34,11.47-126.52-5.9-174.57-47.25,4.88-27.93,5.85-25.21,17.51-49.7Z"/>
  <path class="cls-5" d="m130.86,359.08c12.47-12.02,25.62-19.01,42.94-21.22,23.48,24.41,54.46,35.84,88.13,36.5,12.01.22,23.99-1.17,35.63-4.13,5.71,27.99,6.63,51.88-9.99,77.08-.59.91-1.2,1.8-1.82,2.69.18.42.36.84.54,1.26,41.5-11.14,77.79-43.53,81.02-88.1,16.53,21.24,11.75,27.23,20.42,44.68-28.34,24.73-62.82,41.38-99.82,48.19-62.34,11.47-126.52-5.9-174.57-47.25,4.88-27.93,5.85-25.21,17.51-49.7Z"/>
  <path class="cls-1" d="m227.88,279.67c-15.78-14.04-22.07-24.67-32.96-42.6-1.44-2.37-7.88-11.26-7.46-13.57,5.05-27.63,26.14-57.46,39.65-82.59,1.37-2.56,4.62-5.36,6.93-5.68,4.18,4.09,7.57,12.68,11.55,18.03,9.41,12.67,22.1,21.92,34.38,31.58l4.08,2.94c15.7,5.28,29.24,15.04,34.61,31.07-3.62,8.22-4.23,11.61-11.57,15.03-1.93.9-12.26,17.81-14.3,20.89-7.53,11.37-14.93,19.24-24.8,28.52-10.6,6.1-16.58,7.96-28.92,4.23-3.75-2.86-7.29-5.23-11.19-7.85Z"/>
  <path class="cls-6" d="m284.05,187.77c-7.43.61-13.52,3.65-19.89,3.34l-.28-1.11c5.85-5.65,8.02-4.89,16.09-5.17l4.08,2.94Z"/>
  <path class="cls-2" d="m232.96,243.32c7.79-.24,30.06-3.33,34.19,3-.41,3.56-2.01,4.85-4.32,7.64-9.52,5.54-14.97,3.88-25.58,2.15-2.73-4.74-4.29-7.38-4.29-12.79Z"/>
  <path class="cls-6" d="m219.53,192.34c5.53-.18,11.06,4.06,11.29,9.75-2.09,3-.75,2.32-3.71,2.92-3.72-3.01-3.51-6.44-7.64-9.89-2.27,1.65-1.85,2.35-2.95,5.64-.61,2.34-.08,1.27-2.08,2.96-2.76-.69-3.35-2.09-5.14-4.43l-.7-.93c-2.49,1.71-4.18,3.33-7.11,3.51l-.34-2.11c3.2-4.51,12.66-5.96,18.37-7.42Z"/>
  <path class="cls-6" d="m219.5,181.43c10.1.53,12.73,2.69,19.72,9.77-7.01-1.96-12.74-3.81-20-4.48-5.24.93-14.22,3.51-19.84,4.84,7.73-5.79,10.41-8.03,20.12-10.13Z"/>
  <path class="cls-6" d="m275.51,194.18c3.24-.12,4.09.11,7.25.61,3.31,2.49,2.21.95,3.61,4.64l-1.09,2.36c-3.39,1.71-1.62,1.34-5.53,1-1.83-2.08-.77-1.69-2.95-2.02l-.74.91c-2.52.8-4.49.1-7.13-.41l-.83-1.78c2.39-3.25,3.62-3.47,7.4-5.31Z"/>
  <path class="cls-1" d="m227.88,279.67c3.9,2.62,7.44,4.99,11.19,7.85,12.33,3.73,18.31,1.87,28.92-4.23l-.75,15.43c2.34,17.7,9.46,23.13,22.16,34.77,2.62,12.1,5.2,24.76,8.18,36.73-11.64,2.96-23.62,4.36-35.63,4.13-33.67-.66-64.65-12.09-88.13-36.5,37.86-8.73,55.11-14.35,54.07-58.19Z"/>
  <path class="cls-2" d="m267.98,283.29l-.75,15.43c-1.11-2.3.15-4.21-1.28-7.66-6.31,2.48-20.56,7-26.06,1.5l1.11-.72c2.98.64,5.58,1.27,8.53,2.04l1.1-.91-.67-1.72c-4.61-.61-8.01-.61-10.89-3.74,12.33,3.73,18.31,1.87,28.92-4.23Z"/>
  <path class="cls-6" d="m318.66,218.85l1.29.54c8.51,35.25-33.09,74.47-29.85,112.95l-.72,1.14c-12.7-11.64-19.81-17.07-22.16-34.77l.75-15.43c9.88-9.28,17.28-17.16,24.8-28.52,2.04-3.08,12.37-19.99,14.3-20.89,7.33-3.42,7.95-6.81,11.57-15.03Z"/>
</svg>