<?xml version="1.0" encoding="UTF-8"?>
<svg id="Layer_1" data-name="Layer 1" xmlns="http://www.w3.org/2000/svg" viewBox="0 0 500 500">
  <defs>
    <style>
      .cls-1 {
        fill: #f4cabc;
      }

      .cls-2 {
        fill: #e0b09f;
      }

      .cls-3 {
        fill: #e18c88;
      }

      .cls-4 {
        fill: #eb3c27;
      }

      .cls-5 {
        fill: #521c1d;
      }

      .cls-6 {
        fill: #f2dadc;
      }

      .cls-7 {
        fill: #e6e6ea;
      }

      .cls-8 {
        fill: #27559a;
      }

      .cls-9 {
        fill: #be344d;
      }

      .cls-10 {
        fill: #010101;
      }

      .cls-11 {
        fill: #ca98c2;
      }
    </style>
  </defs>
  <path class="cls-8" d="m107.43,406.08c-64.83-59.22-86.3-152.35-53.94-233.98C85.84,90.47,165.29,37.35,253.09,38.63c87.8,1.29,165.66,56.71,195.62,139.25,29.96,82.54,5.77,175-60.77,232.3-53.27,45.88-125.87,62.27-193.68,43.73-12.76-3.49-25.17-8.17-37.06-13.98-18.12-8.85-34.88-20.25-49.77-33.86Z"/>
  <path class="cls-5" d="m171.77,321c7.12-28.74-16.28-44.79-22.53-72.54-8.49-37.71,7.45-54.04,23.47-84.88,5.82-11.21,7.58-25.68,16.3-38.96,9.91-15.11,20.6-24.77,38.58-29,6.18-1.49,12.57-1.92,18.9-1.29,10.08,1.04,17.48,4.96,27.01,7.32,9.89,2.46,17.01.86,26.32,7.26,37.1,25.51,30.65,85.23,39.39,124.14,3.79,16.91,13.03,29.35,12.41,46.99.44,24.82-15.05,36.42-9.61,59.38l1.94,8.38c14.85,9.77,49.95,44.09,44,62.39-53.27,45.88-125.87,62.27-193.68,43.73-12.76-3.49-25.17-8.17-37.06-13.98-18.12-8.85-34.88-20.25-49.77-33.86,7.42-21.89,21.42-36.02,38.21-50.41,4.95-21.02,12-21.41,26.13-34.67Z"/>
  <path class="cls-4" d="m319.05,340.79c9.68,2.17,15.57,3.35,24.89,7,14.85,9.77,49.95,44.09,44,62.39-53.27,45.88-125.87,62.27-193.68,43.73-24.45-22.42,15.59-33.47,24.98-46.39,7.81-10.75-.68-33.37-3.21-45.97,7.34.77,16.24,1.5,23.53,1.8,17.2.71,71.81-4.94,79.48-22.55Z"/>
  <path class="cls-1" d="m260.66,136.21c11.05,13.56,34.28,28.13,40.49,46.22,13.18,28.83-3.21,81.37-26.49,101.99-23.36,10.41-21.92,5.73-41.38-1.04l-1.79-.61c-9.32-10.66-17.13-19.92-23.12-32.88-7.35-15.77-8.5-33.73-3.23-50.32,1.6-4.93,5.55-10.85,7.36-15.84l.49-1.38c.77-1.62,2.51-4.07,3.56-5.66,4.31-14.18,32.04-30.84,44.12-40.5Z"/>
  <path class="cls-10" d="m216.55,176.7c9.44-1.62,26.64-1.97,30.55,9.3l-.94,1.09c-14.91-7.4-16.55-7.95-33.17-4.73.77-1.62,2.51-4.07,3.56-5.66Z"/>
  <path class="cls-10" d="m270.32,181.34c11.84-6.12,20.07-7.23,30.84,1.09l-1.16,1.55c-16.8-5.85-19.44-2.22-33.57,5.69l-1.03-.41,4.92-7.93Z"/>
  <path class="cls-9" d="m243.35,243.38l-.82-2.09,1.06-1.17c5.57-.2,14.44-.43,18.96,3.08,2.46.93,4.05,1.25,6.61,1.64.53.73,1.38,1.78,1.78,2.54l1.86.66c3.05,9.32-20.88,35.57-36.39,1.2l.61-1.3,2,.52,1.72-.34,2.6-4.72Z"/>
  <path class="cls-6" d="m243.35,243.38l-.82-2.09,1.06-1.17c5.57-.2,14.44-.43,18.96,3.08,2.46.93,4.05,1.25,6.61,1.64.53.73,1.38,1.78,1.78,2.54l-.31.93c-10.13.68-19.76.16-29.88-.2l2.6-4.72Z"/>
  <path class="cls-3" d="m243.35,243.38l-.82-2.09,1.06-1.17c5.57-.2,14.44-.43,18.96,3.08l-19.2.19Z"/>
  <path class="cls-11" d="m240.75,248.1c10.12.36,19.75.88,29.88.2l.42,2.19c-4.16,5.86-17.16,5.14-23.48,4.11-4.53-.73-6.11-2.67-8.54-6.16l1.72-.34Z"/>
  <path class="cls-10" d="m279.11,205.8c-5.65-3.1-7.65-7.87-3.43-13.43,6.46-3.92,16.85-1.83,21.39,4.17l-.68,1.38-3.65,5.09c-1.91,2.67-2.03,2.89-5.12,4.45-3.65.14-4.97.1-8.51-1.67Z"/>
  <path class="cls-7" d="m279.11,205.8c11.8-3.59,7.39-7.09,13.69-10.54l3.59,2.67-3.65,5.09c-1.91,2.67-2.03,2.89-5.12,4.45-3.65.14-4.97.1-8.51-1.67Z"/>
  <path class="cls-10" d="m227.23,190.12c2.82-.58,5.74.57,8.18,1.76,2.13,3.09,1.66,1.43,1.53,5.11-2.21,3.59-2.01,3.5-5.52,5.72-2.79-.65-7.35-1.29-8.6-3.62-1.61-2.99-4.9-5.01-4.5-8.09,3.99.24,5.15.4,8.9-.88Z"/>
  <path class="cls-1" d="m231.49,282.77l1.79.61c19.46,6.77,18.02,11.45,41.38,1.04-.07,5.71-.02,8.02.7,13.72,7.74,29.66,14.7,35.19,43.69,42.64-7.67,17.62-62.29,23.26-79.48,22.55-7.29-.3-16.19-1.02-23.53-1.8,1.48-23.45,9.94-37.75,14.15-60.23l.17-1.11c1.26-7.65,1.27-9.6,1.14-17.43Z"/>
  <path class="cls-2" d="m231.49,282.77l1.79.61c19.46,6.77,18.02,11.45,41.38,1.04-.07,5.71-.02,8.02.7,13.72-15.85,7.1-28.38,10.03-45.17,3.17l.17-1.11c1.26-7.65,1.27-9.6,1.14-17.43Z"/>
  <path class="cls-4" d="m145.64,355.67c1.83,30.54,18.31,27.29,23.54,50.15,1.56,6.8-13.02,18.1-10.92,28.05.2.97-.4,4.61-1.06,6.07-18.12-8.85-34.88-20.25-49.77-33.86,7.42-21.89,21.42-36.02,38.21-50.41Z"/>
</svg>