<?xml version="1.0" encoding="UTF-8"?>
<svg id="Layer_1" data-name="Layer 1" xmlns="http://www.w3.org/2000/svg" viewBox="0 0 500 500">
  <defs>
    <style>
      .cls-1 {
        fill: #f4cabc;
      }

      .cls-2 {
        fill: #e0b09f;
      }

      .cls-3 {
        fill: #e18c88;
      }

      .cls-4 {
        fill: #1e0901;
      }

      .cls-5 {
        fill: #75af8a;
      }

      .cls-6 {
        fill: #e6e6ea;
      }

      .cls-7 {
        fill: #65a97a;
      }

      .cls-8 {
        fill: #010101;
      }

      .cls-9 {
        fill: #dcb6ab;
      }

      .cls-10 {
        fill: #863821;
      }
    </style>
  </defs>
  <path class="cls-10" d="m111.83,408.69c-65.35-56.9-89.14-148.05-59.93-229.63C81.12,97.48,157.36,42.15,243.98,39.67c86.62-2.48,165.9,48.39,199.74,128.17,33.84,79.77,15.31,172.13-46.68,232.68-11.27,11.01-23.74,20.71-37.17,28.94-5.29,3.24-10.72,6.24-16.27,9-76.17,37.82-167.62,26.08-231.75-29.76Z"/>
  <path class="cls-6" d="m111.83,408.69c-65.35-56.9-89.14-148.05-59.93-229.63C81.12,97.48,157.36,42.15,243.98,39.67c86.62-2.48,165.9,48.39,199.74,128.17,33.84,79.77,15.31,172.13-46.68,232.68-.37-7.77-14.14-35.11-22.07-39.33,3.94-32.15-4.89-33.76-21.48-58.99-11.39-17.04-9.59-39.4-2.75-57.8,3.74-10.06,9.1-20.14,11.29-30.66-4.8-12.88-11.64-24.36-15.27-38.41-4.86-18.3-3.65-37.01-13.8-53.69-15.72-25.83-44.4-41.95-74.79-40.14-9.1.54-18.36.52-27.49,1.72-48.67,6.43-62.47,60.13-75.05,99.62-3.34,10.49-7,21.42-9.99,32.06-6.66,21.35,9.12,35.12,18.75,52.04,17.81,30.67-6.02,44.21-21.28,67.36-6.1,9.25-8.06,14.63-10.73,25.1-10.92,16.62-16.49,29.63-20.53,49.27Z"/>
  <path class="cls-1" d="m206.39,247.92c-14.14-24.65-4.29-75.28,8.74-98.95,6.12-11.12,17.69-6.5,26.78-8.41,3.02-3.06,2.11-2.45,3.28-7.34,3.66,3.07,22.85,31.62,27.28,37.25-2.04,2.38-2.2,2.23-2.9,5.21,1.4,3.13.33,2.04,3.06,3.65,2.37-.75,4.74-1.54,7.09-2.36,4.43,1.19,8.36,6,12.02,9.44l1.36.03c2.15,3.79,4.45,6.1,6.38,10.15,2.61,3.54,5.58,6.32,8.67,9.44-1.63,14.11-2.02,34.28-8.24,46.47,0,5.05-2.19,12.19-3.64,16.71-6.18,19.24-9.34,37.53,2.91,55.24.74,1.07.57,1.03.8,2.56,6.45,7.43,10.62,14.65,16.47,21.86-21.75,14.3-38.05,22.57-64.62,21.91-21.73-.57-42.33-9.82-57.19-25.68,4.17-5.35,8.67-10.46,13.1-15.59,9.52-23.85,9.61-35.5,3.34-60.95-1.05-4.25-3.86-14.89-4.45-18.98l-.23-1.67Z"/>
  <path class="cls-8" d="m206.39,247.92c9.59,10.82,17.36,19.31,28.75,28.53l.27,11.59-.65,25.35c-9.3,4.95-18.64,9.7-27.02,16.13,9.52-23.85,9.61-35.5,3.34-60.95-1.05-4.25-3.86-14.89-4.45-18.98l-.23-1.67Z"/>
  <path class="cls-4" d="m299.9,252.52c0,5.05-2.19,12.19-3.64,16.71-6.18,19.24-9.34,37.53,2.91,55.24.74,1.07.57,1.03.8,2.56-6.29-4.58-13.68-7.47-20.57-11.93-.29-10.09.13-20.74-.05-31,.62-3.42.76-9.52.96-13.18,7.6-6.19,12.96-11.27,19.6-18.4Z"/>
  <path class="cls-8" d="m291.73,186.42l1.36.03c2.15,3.79,4.45,6.1,6.38,10.15l-3.59,1.38c-1.33-2.94-.3-1.97-2.96-3.26-8.17,1.14.91,1.87-5.25,9.55l-1.58.08c-3.34-3.78-1.64-6.78-4.43-9.53-3.3.64-3.32,1.09-6.23.09l-.09-1.54c5.74-6.35,8.76-5.53,16.51-5.15l-.14-1.83Z"/>
  <path class="cls-2" d="m254.43,187.56c3.24,5.9,8.88,42.31,5.65,46.91-3.18,2.09-5.8,1.98-9.62,2.41-1.84-1.39-4.39-3.42-4.93-5.64-2.42-9.92,4.79-35.69,8.9-43.68Z"/>
  <path class="cls-9" d="m238.12,283.23c9.49-.86,11.2.52,22.01-2.68,5.53-1.64,14.67-7.21,17.59-6.63-5.68,17.3-28.97,22.92-39.6,9.31Z"/>
  <path class="cls-3" d="m235.55,240.54c3.89.65,9.22.92,12.75,1.67,6.03,1.28,22.16-3.94,24.39,1.99l-1.95,1.64-3.45,2.03c-15.04,9.01-20.58,3.99-31.74-7.34Z"/>
  <path class="cls-8" d="m219.18,185.95l9.26,2.36c4.38,3.99,4.72,3.54,3.97,9.39-2.05,2.87-2.27,2.75-5.26,4.41-1.81-.15-3.54-.01-5.34.17l-.2-1.22c.04-3.96-.85-4.91-3.82-6.9-3.49-.31-7.76,1.47-11.23,2.59,4.5-5.6,6.24-7.54,12.6-10.8Z"/>
  <path class="cls-8" d="m215.69,170c5.33-.7,17.95-.7,20.19,5.3l-1.82,3.35c-6.68-2.9-18.22-4.3-20.92-6.04l2.55-2.61Z"/>
  <path class="cls-7" d="m132.36,359.42c.83,29.71,14.89,50.24,44.11,60.64,3.67,1.31,6.99,2.29,10.55.4,2.81-19.62-46.99-26.42,7.6-75.34,14.86,15.86,35.46,25.11,57.19,25.68,26.57.66,42.87-7.61,64.62-21.91,4.29,7.15,5.61,12.68,7.44,20.6-12.55,17.24-34.39,34.91-15.33,54.32,6.81,6.93,25.93,17.64,34.91,10.96.19-2.31,1.2-15.05,1.72-16.35,9.59-24.16,24.37-30.22,29.79-57.24,7.93,4.21,21.7,31.55,22.07,39.33-11.27,11.01-23.74,20.71-37.17,28.94-5.29,3.24-10.72,6.24-16.27,9-76.17,37.82-167.62,26.08-231.75-29.76,4.04-19.64,9.6-32.65,20.53-49.27Z"/>
  <path class="cls-5" d="m343.59,438.46c2.3-4.19.18-4.27,2.72-8.43,4.19-2.34,8.69-1.4,13.55-.57-5.29,3.24-10.72,6.24-16.27,9Z"/>
</svg>