<?xml version="1.0" encoding="UTF-8"?>
<svg id="Layer_1" data-name="Layer 1" xmlns="http://www.w3.org/2000/svg" xmlns:xlink="http://www.w3.org/1999/xlink" viewBox="0 0 500 500">
  <defs>
    <style>
      .cls-1 {
        fill: #7d4f43;
      }

      .cls-2 {
        fill: #050605;
      }

      .cls-3 {
        fill: #963331;
      }

      .cls-4 {
        fill: #e0b09f;
      }

      .cls-5 {
        fill: #2d4085;
      }

      .cls-6 {
        fill: #281e1a;
      }

      .cls-7 {
        fill: #5d6190;
      }

      .cls-8 {
        fill: #521c1d;
      }

      .cls-9 {
        fill: #ebc7b6;
      }

      .cls-10 {
        fill: #e6e6ea;
      }

      .cls-11 {
        fill: #97d5e0;
      }

      .cls-12 {
        fill: #27559a;
      }

      .cls-13 {
        fill: url(#linear-gradient);
      }

      .cls-14 {
        fill: #fefefe;
      }
    </style>
    <linearGradient id="linear-gradient" x1="242.5" y1="-86.77" x2="246.1" y2="-143.6" gradientTransform="translate(0 -22) scale(1 -1)" gradientUnits="userSpaceOnUse">
      <stop offset="0" stop-color="#ecd9c8"/>
      <stop offset="1" stop-color="#e9e6e3"/>
    </linearGradient>
  </defs>
  <path class="cls-12" d="m88.01,404.72c-25.27-24.93-43.92-65.51-51.75-99.69-17.58-76.73,5.65-161.67,62.06-217.01,40.31-39.54,97.19-63.08,153.5-63.11,57.48.26,112.44,23.62,152.52,64.83,42.15,42.88,65.58,100.72,65.16,160.85-.26,44.58-13.84,88.07-38.98,124.89-6.82,9.97-15.24,19.86-23.05,29.14-6.61-51.74-13.61-103.43-20.98-155.07-3.29-21.85-6.36-43.74-9.2-65.65-.44-3.28-2.93-19.27-2.74-21.74-10.83-4.32-23.69-7.55-35.19-11.75l-2.53-1.25c-2.69-.36-26.04-8.94-31.18-10.51-39.37-12.04-75.77-12.73-115.67-1.55-8.72,2.44-19.52,5.57-27.41,9.73l-2.83-.06c-11.52,3.02-24.17,7.16-35.99,5.94-7.81,56.32-16,112.6-24.56,168.81-2.87,18.61-5.54,37.24-8.01,55.91-1.11,8.35-2.81,19.06-3.17,27.29Z"/>
  <path class="cls-2" d="m142.34,117.48c65.06-20.66,128.05-26.23,193.45-3.77,3.44,1.18,9.94,3.65,13.39,3.86l.09-1.19.58-1.13c9.45,7.58,22.45,9.54,23.54,24.97.48,6.74,1.57,15.25,1.17,21.93-10.83-4.32-23.69-7.55-35.19-11.75l-2.53-1.25c-2.69-.36-26.04-8.94-31.18-10.51-39.37-12.04-75.77-12.73-115.67-1.55-8.72,2.44-19.52,5.57-27.41,9.73l-2.83-.06c-11.52,3.02-24.17,7.16-35.99,5.94-5.77-1.98-9.73-7.68-7.59-13.79,3.7-10.54,13.81-15.56,23.05-20.41,1-.11,2.12-.65,3.12-1.03Z"/>
  <path class="cls-13" d="m142.34,117.48c19.82-22.55,71.45-49.78,100.75-53.4,32.44-4.01,81.89,33.08,106.18,52.31l-.09,1.19c-3.44-.21-9.95-2.68-13.39-3.86-65.4-22.46-128.39-16.89-193.45,3.77Z"/>
  <path class="cls-2" d="m139.22,118.51c22.82-25.35,74.11-54.14,107.92-57.03,27.75-2.37,81.03,34.07,102.71,53.77l-.58,1.13c-24.29-19.23-73.74-56.32-106.18-52.31-29.3,3.62-80.93,30.85-100.75,53.4-1.01.38-2.13.92-3.12,1.03Z"/>
  <path class="cls-9" d="m162.58,146.83c7.89-4.16,18.69-7.29,27.41-9.73,39.89-11.18,76.3-10.5,115.67,1.55,5.14,1.57,28.49,10.15,31.18,10.51l2.53,1.25c1.11,13.19,1.91,24.6,1.43,37.93-.27,7.36-2.34,17.53-2.44,23.84,4.13,1.99,4.99,3.31,7.76,7.02-.44,4.78-1.68,11.34-1.95,15.29-5.96,8.68-9.88,18.13-21.8,19.56-5.71,20.82-13.83,38.17-26.46,55.87-3.2,4.49-9.23,10.43-12.99,14.98,1.14,3.16.76,11.11.74,14.82,23.47,9.18,45.6,19.56,68.73,28.61,1.73,17.18,2.66,35.1,3.78,52.38,9.69,1.45,20.35,4,30.01,6.09-34.16,23.41-58.7,39.07-101.54,45.16-21.72,3.19-52.01,4.82-73.91.63-36.1-5.31-71.07-22.33-99.53-45.05l32.01-7.16c1.61-16.72,2.21-33.68,3.62-50.49l4.02-77.29c1-16.21,3.17-38.56,2.88-54.13-.69-1.15-2.72-12.56-2.59-14.33.39-5.38,1.2-9.07,5.53-12.41l1.81-1.46c-5.48-14.09-.08-46.07,1.27-63.48l2.83.06Z"/>
  <path class="cls-11" d="m153.72,238.45c6.41,9.74,8.06,13.06,19.49,15.99,8.66,30.79,14.91,46.05,37.21,69.99,4.69,3.97,12.15,10.46,17.85,12.83l3.27.89c14.29,3.99,22.77,2.69,36.66-1.68,5.28-2.92,10.25-7.55,14.71-11.57,1.14,3.16.76,11.11.74,14.82,23.47,9.18,45.6,19.56,68.73,28.61,1.73,17.18,2.66,35.1,3.78,52.38,9.69,1.45,20.35,4,30.01,6.09-34.16,23.41-58.7,39.07-101.54,45.16-21.72,3.19-52.01,4.82-73.91.63-36.1-5.31-71.07-22.33-99.53-45.05l32.01-7.16c1.61-16.72,2.21-33.68,3.62-50.49l4.02-77.29c1-16.21,3.17-38.56,2.88-54.13Z"/>
  <path class="cls-5" d="m153.72,238.45c6.41,9.74,8.06,13.06,19.49,15.99,8.66,30.79,14.91,46.05,37.21,69.99.47,18.45,1.62,57.63-.08,75.69.09,23.76-.31,48.85.38,72.45-36.1-5.31-71.07-22.33-99.53-45.05l32.01-7.16c1.61-16.72,2.21-33.68,3.62-50.49l4.02-77.29c1-16.21,3.17-38.56,2.88-54.13Z"/>
  <path class="cls-7" d="m153.72,238.45c6.41,9.74,8.06,13.06,19.49,15.99,8.66,30.79,14.91,46.05,37.21,69.99.47,18.45,1.62,57.63-.08,75.69-1.12-16.13-.19-42.36-.08-59.47-21.39,9.19-42.55,18.93-63.43,29.22l4.02-77.29c1-16.21,3.17-38.56,2.88-54.13Z"/>
  <path class="cls-5" d="m283.65,339.71c23.47,9.18,45.6,19.56,68.73,28.61,1.73,17.18,2.66,35.1,3.78,52.38,9.69,1.45,20.35,4,30.01,6.09-34.16,23.41-58.7,39.07-101.54,45.16-.79-44.07-1.12-88.15-.98-132.23Z"/>
  <path class="cls-1" d="m228.27,337.26l3.27.89c14.29,3.99,22.77,2.69,36.66-1.68-10.31,9.29-16.12,11.07-30.22,9.19-3.93-3.08-6.17-4.85-9.71-8.4Z"/>
  <path class="cls-3" d="m162.58,146.83c7.89-4.16,18.69-7.29,27.41-9.73,39.89-11.18,76.3-10.5,115.67,1.55,5.14,1.57,28.49,10.15,31.18,10.51l2.53,1.25c1.11,13.19,1.91,24.6,1.43,37.93-.27,7.36-2.34,17.53-2.44,23.84l-.42.32h-2.73c-6.17.13-10.55,7.09-14.19,11.52.27-6.92.59-12.38-.1-19.32-.5-8.01-1.44-12.98-8.5-18.56-20.91-16.57-47.75-16.69-73.18-14.78-20.15,1.51-50.37,5.38-64.93,21.24-6.23,6.79-2.92,22.89-1.91,32.21-6.01-7.44-11.81-13.77-13.53-23.57-1.45-8.24-1.41-19.69,3.56-26.69l-1.5-1.35c-1.64-4.84.64-20.96,1.67-26.36Z"/>
  <path class="cls-10" d="m162.58,146.83c7.89-4.16,18.69-7.29,27.41-9.73,39.89-11.18,76.3-10.5,115.67,1.55,5.14,1.57,28.49,10.15,31.18,10.51.91,10.22,1.91,17.17,1.73,27.57-34.21-40.33-142.23-41.66-177.66-3.53-1.64-4.84.64-20.96,1.67-26.36Z"/>
  <path class="cls-6" d="m160.91,173.19c35.43-38.13,143.44-36.8,177.66,3.53.18-10.4-.82-17.34-1.73-27.57l2.53,1.25c1.11,13.19,1.91,24.6,1.43,37.93-.27,7.36-2.34,17.53-2.44,23.84l-.42.32h-2.73c2.59-11.55,3.16-22.07,3.41-33.82-27.59-30.57-79.93-32.98-118.12-29.32-17.86,1.71-46.55,10.45-58.08,25.18l-1.5-1.35Z"/>
  <path class="cls-2" d="m292.67,293.81c8.64-7.74,13.41-14.9,18.57-25.33,1.6-3.24,5.87-14.75,7.69-16.54,2.07.45,1.93.55,3.43,2.1-5.71,20.82-13.83,38.17-26.46,55.87-3.2,4.49-9.23,10.43-12.99,14.98-4.46,4.02-9.42,8.65-14.71,11.57-13.89,4.37-22.37,5.67-36.66,1.68l-3.27-.89c-5.7-2.36-13.16-8.86-17.85-12.83-22.3-23.94-28.55-39.2-37.21-69.99l2.89-2.26,1.05.27c5.99,16.69,11.13,28.88,22.41,43.15,7.62-7.26,10.45-11.35,15.4-20.79,21.43-.09,42.85.32,64.26,1.22,3.93,5.89,8.43,12.74,13.44,17.79Z"/>
  <path class="cls-10" d="m219.47,291.01c-.21-2.49-.83-5.82.24-7.87,8.42-.3,46.86-1.18,53.18.21.57,3.24.2,4.62-.22,7.94-.78,2.98-1.58,6.55-2.71,9.37-5.07,6.77-9.6,10.08-18.19,10.95-9.53.97-19.46.2-26.16-7.17-3.46-3.32-4.77-8.89-6.13-13.43Z"/>
  <path class="cls-14" d="m219.47,291.01c-.21-2.49-.83-5.82.24-7.87,8.42-.3,46.86-1.18,53.18.21.57,3.24.2,4.62-.22,7.94-16.68-1.82-37.29,2-53.19-.28Z"/>
  <path class="cls-14" d="m225.59,304.44c8.53-5.35,33.01-3.79,44.35-3.78-5.07,6.77-9.6,10.08-18.19,10.95-9.53.97-19.46.2-26.16-7.17Z"/>
  <path class="cls-6" d="m159.74,146.78l2.83.06c-1.03,5.4-3.31,21.52-1.67,26.36l1.5,1.35c-4.97,7-5.01,18.45-3.56,26.69,1.72,9.8,7.53,16.13,13.53,23.57-1-9.31-4.32-25.41,1.91-32.21,14.56-15.86,44.78-19.73,64.93-21.24,25.43-1.9,52.27-1.78,73.18,14.78,7.05,5.59,7.99,10.56,8.5,18.56l-1.73,2.04c-.92-8.09-1.41-13.83-8.76-19.41-23.72-18-55.54-15.22-83.39-12.71-14.27,1.29-42.8,7.71-51.86,19.18-5.92,7.49,1.18,41.27,1.71,52.96-2.64-11.76-3.46-19.26-11.59-28.97-2.18-2.6-5.53-5.1-6.82-7.53-5.48-14.09-.08-46.07,1.27-63.48Z"/>
  <path class="cls-8" d="m320.91,204.7c.69,6.95.37,12.4.1,19.32,3.64-4.43,8.02-11.39,14.19-11.51h2.73s-1.28.46-1.28.46c-13.63,4.99-15.09,17.89-19.55,30.43.65-14.04,2.76-20.88,2.08-36.67l1.73-2.04Z"/>
  <path class="cls-2" d="m207.86,189.98c1.73-.07,3.47-.05,5.2.04,11.22.58,19.1,1.59,17.3,14.62l-.84.51c-3.45-1.33-6.88-2.73-10.28-4.19-10.02-1.82-12.99,1.02-22.52,1.44-1.06.05-1.38-.9-2.02-1.79-.26-8.56,6.41-9.55,13.17-10.62Z"/>
  <path class="cls-2" d="m272.73,190.73c11.03-1.06,27.34-.63,22.8,15.67-2.53-.48-3.94-4.11-8.68-6.14-3.01-.46-5.43-.83-8.5-.61-5.06.36-13.12,4.67-17.64,2.55-1.62-6.64,7.24-10.04,12.02-11.46Z"/>
  <path class="cls-2" d="m213.61,214.01c13.91,2.94,12.68,15.5,3.05,23.44-13.2-2.19-13.78-16.71-3.05-23.44Z"/>
  <path class="cls-2" d="m273.58,214.92c13.37.98,15.22,14.11,5.16,21.1-12.64.85-13.23-15.02-5.16-21.1Z"/>
  <path class="cls-4" d="m252.68,253.47c1.56-2.81,2.83-5.98,5.51-7.51,5.25,1.3,6.68,17.15-13.22,13.36l-1.83-.2-.14-.66c3.94-1.59,5.4-2.17,8.94-4.49l.75-.5Z"/>
  <path class="cls-7" d="m344.16,234.49c1.32,32.25,4.85,65.16,6.14,97.47.37,9.34,2.39,27.83,2.08,36.36-23.13-9.05-45.26-19.43-68.73-28.61.02-3.72.4-11.66-.74-14.82,3.76-4.54,9.79-10.49,12.99-14.98,12.64-17.7,20.75-35.05,26.46-55.87,11.92-1.43,15.84-10.88,21.8-19.56Z"/>
</svg>