<?xml version="1.0" encoding="UTF-8"?>
<svg id="Layer_1" data-name="Layer 1" xmlns="http://www.w3.org/2000/svg" viewBox="0 0 500 500">
  <defs>
    <style>
      .cls-1 {
        fill: #050605;
      }

      .cls-2 {
        fill: #222f65;
      }

      .cls-3 {
        fill: #240f0b;
      }

      .cls-4 {
        fill: #e0b09f;
      }

      .cls-5 {
        fill: #2d4085;
      }

      .cls-6 {
        fill: #281e1a;
      }

      .cls-7 {
        fill: #521c1d;
      }

      .cls-8 {
        fill: #ebc7b6;
      }

      .cls-9 {
        fill: #857eb1;
      }

      .cls-10 {
        fill: #e6e6ea;
      }

      .cls-11 {
        fill: #fefefe;
      }
    </style>
  </defs>
  <path class="cls-9" d="m103.4,419.89c-6.28-4.8-12.81-12.25-18.01-18.33-27.68-32.27-45.54-71.8-51.45-113.9-13.67-100.62,34.92-198.29,127.65-242.43,20.09-9.56,41.1-16.17,63.22-19,54.53-6.95,109.58,8.1,152.99,41.82,49.4,38.75,81.99,93.49,89.15,156.24,6.68,61.73-11.15,123.62-49.65,172.33-6.84,8.47-14.29,16.43-22.29,23.82-33.4,28.34-62.93,43.15-106.17,51.79-31.68,4.53-47.88,4.13-79.28-.35-46.65-9.97-69.8-21.93-106.16-51.98Z"/>
  <path class="cls-8" d="m157.82,213.47l-1.08-.17c-1.09-.79-1.44-1.12-2.02-2.41-9.25-20.63-10.48-47.17-3.61-68.4,7.85-23.78,24.97-43.37,47.47-54.34,29.84-14.83,95.24-30.96,114.1,7.03,25.33,10.35,36.34,30.28,40.55,56.66,2.8,17.57-1.88,45.86-12.78,60.26,19.95,11.32,3.8,49.93-20.64,50.92-4.37,24.15-21.55,43.97-44.86,51.95-.9.05-10.12,2.36-11.55,2.71-15.78,3.91-24.92,1.81-40.1-2.86-24.2-9.01-36.01-28.6-44.86-51.22-13.15-2.34-20.65-8-26.13-20.58-4.06-9.32-6.18-24.86,5.49-29.54Z"/>
  <path class="cls-7" d="m157.82,213.47l-1.08-.17c-1.09-.79-1.44-1.12-2.02-2.41-9.25-20.63-10.48-47.17-3.61-68.4,7.85-23.78,24.97-43.37,47.47-54.34,29.84-14.83,95.24-30.96,114.1,7.03,25.33,10.35,36.34,30.28,40.55,56.66,2.8,17.57-1.88,45.86-12.78,60.26-16.09,4.56-15.53,23.14-21.09,37.32-2.56-22.94-1.95-49.47-2.01-72.8-16.5-16.59-30.83-9.25-19.91-38.36-15.41,19.93-33.09,23.51-57.04,28.26-19.62,3.89-40.95,6.44-59.99,12.41.49,15.92,1.31,56.36-.91,70.91l-.47-1.11c-4.87-11.52-6.65-35.44-21.21-35.25Z"/>
  <path class="cls-11" d="m223.79,274.03l-1.64-4.14.41-.92c7.01-.27,17.02.67,24.45.94,9.34.34,23.33-.97,31.96.02l.72.93c-.59,1.95-.51,1.97-1.67,3.6-13.27,23.25-42.12,23.46-54.22-.42Z"/>
  <path class="cls-10" d="m223.79,274.03l-1.64-4.14.41-.92c7.01-.27,17.02.67,24.45.94,9.34.34,23.33-.97,31.96.02l.72.93c-.59,1.95-.51,1.97-1.67,3.6-.79-.28-50.27-.75-54.22-.42Z"/>
  <path class="cls-1" d="m208.31,210.09c6.66-3.42,12.46-7.47,19.32-.94l.34.97c7.33,5.6,10.96,12.52,3.19,20.08-6.33,6.1-21.64,6.61-27.19-.67-3.83-5.02-3.33-16.08,2.29-19.86l2.06.42Z"/>
  <path class="cls-11" d="m227.96,210.12c7.33,5.6,10.96,12.52,3.19,20.08-6.33,6.1-21.64,6.61-27.19-.67-3.83-5.02-3.33-16.08,2.29-19.86l2.06.42c.17,7.49-4.07,12.94,1.96,19.06,7.45,7.58,20.04,1.48,18.95-8.95-.4-3.74-2.02-6.11-1.26-10.08Z"/>
  <path class="cls-1" d="m269.32,211.71c.11-2.6-.09-1.33,2.01-3.94,8.3-3.82,14.79-2.2,20.91,4.29,2.01,3.79,3.72,10.36,2.51,14.52-3.36,11.58-19.43,7.67-27.57,5.63-4.63-7.27-9.33-17.35,2.14-20.51Z"/>
  <path class="cls-11" d="m269.32,211.71l.99,1.31-.32.97c-1.49,4.62-2.23,8.85.11,13.38,7.05,13.65,29.12-.91,14.79-11.42,2.68-1.83,4.37-2.51,7.34-3.88,2.01,3.79,3.72,10.36,2.51,14.52-3.36,11.58-19.43,7.67-27.57,5.63-4.63-7.27-9.33-17.35,2.14-20.51Z"/>
  <path class="cls-6" d="m209.68,187.28c7.95-.39,23.87-2.24,26.47,7.45-3.34,5.72-8.17,3.72-13.36,2.27-8.39-.57-22.45,3.69-27.21-1.6-.41-2.85-.78-1.64.48-3.85,4.2-2.41,8.86-3.15,13.62-4.28Z"/>
  <path class="cls-3" d="m296.04,199.93c-9.59-6.36-22.5-.35-31.15-2.3-1.68-1.56-1.54-1.89-2.34-4.11,2.11-9.3,28.94-5.63,36.08-3.3,3.68,3.53,4.03,5.91.25,9.63-1.16.1-1.7.24-2.83.08Z"/>
  <path class="cls-6" d="m298.62,190.22c3.68,3.53,4.03,5.91.25,9.63-1.16.1-1.7.24-2.83.08,1.13-3.19,1.8-6.41,2.58-9.71Z"/>
  <path class="cls-4" d="m259.67,251.54c1.66,1.06,1.8,1.97,1.56,3.7-5.94,7.02-15.84,6.18-23.33,2.29l-.26-2.17.95-.75c9.67,3.11,13.6,3.86,21.09-3.08Z"/>
  <path class="cls-5" d="m223.32,314.81c15.18,4.67,24.31,6.77,40.1,2.86,1.42-.35,10.65-2.66,11.55-2.71-.02,4.16-.27,18.98.76,22.4,4.59.96,12.11,2.19,15.14,5.82-.52,5.57-.62,6.97-2.84,12.29l.97,2.3c-1.61,25.77-.87,55.81-.84,81.87.06,10.87.29,21.74.71,32.6-31.68,4.53-47.88,4.13-79.28-.35-.57-7.69-.06-22.07,0-30.23l-.27-59.29c-.05-7.33-.85-21.74.05-28.3-.91-2.5-1.35-4.82-1.93-7.41l.62-2.88c3.81-4.06,9.61-4.34,15.12-5.29,2.07-4.3.61-18.27.16-23.67Z"/>
  <path class="cls-11" d="m223.32,314.81c15.18,4.67,24.31,6.77,40.1,2.86,1.42-.35,10.65-2.66,11.55-2.71-.02,4.16-.27,18.98.76,22.4,4.59.96,12.11,2.19,15.14,5.82-.52,5.57-.62,6.97-2.84,12.29-3.31,4.05-6.41,7.41-10.73,10.39-11.06,7.49-24.63,10.31-37.76,7.83-13.74-2.47-22.26-8.39-30.18-19.63-.91-2.5-1.35-4.82-1.93-7.41l.62-2.88c3.81-4.06,9.61-4.34,15.12-5.29,2.07-4.3.61-18.27.16-23.67Z"/>
  <path class="cls-4" d="m223.32,314.81c15.18,4.67,24.31,6.77,40.1,2.86,1.42-.35,10.65-2.66,11.55-2.71-.02,4.16-.27,18.98.76,22.4-2.3,11.73-15.78,11.39-25.74,11.86-7.6.37-21.66-.12-26.76-6.25-.66-.85-.17-3.24-.07-4.49,2.07-4.3.61-18.27.16-23.67Z"/>
  <path class="cls-2" d="m209.56,441.65c19.65,8.92,61.11,13.06,78.58-2.02.06,10.87.29,21.74.71,32.6-31.68,4.53-47.88,4.13-79.28-.35-.57-7.69-.06-22.07,0-30.23Z"/>
  <path class="cls-7" d="m290.86,343.17c1.78.66,2.62.91,4.29,1.76,36.9,16.78,86.3,33.08,99.87,75.5-33.4,28.34-62.93,43.15-106.17,51.79-.42-10.86-.65-21.73-.71-32.6-.03-26.06-.76-56.1.84-81.87l-.97-2.3c2.22-5.32,2.33-6.71,2.84-12.29Z"/>
  <path class="cls-7" d="m290.86,343.17c1.78.66,2.62.91,4.29,1.76-4.17,5.79-2.17,8.89-6.17,12.83l-.97-2.3c2.22-5.32,2.33-6.71,2.84-12.29Z"/>
  <path class="cls-7" d="m103.4,419.89c6.13-7.12,10.86-19.26,20.29-29.71,4.74-5.3,10.13-9.98,16.06-13.91,6.87-4.48,60.86-31.44,66.85-31.77l.82,2.14c.58,2.59,1.02,4.91,1.93,7.41-.9,6.56-.1,20.98-.05,28.3l.27,59.29c-.05,8.15-.56,22.54,0,30.23-46.65-9.97-69.8-21.93-106.16-51.98Z"/>
</svg>