<?xml version="1.0" encoding="UTF-8"?>
<svg id="Layer_1" data-name="Layer 1" xmlns="http://www.w3.org/2000/svg" viewBox="0 0 500 500">
  <defs>
    <style>
      .cls-1 {
        fill: #7d4f43;
      }

      .cls-2 {
        fill: #050605;
      }

      .cls-3 {
        fill: #5fb2d1;
      }

      .cls-4 {
        fill: #e0b09f;
      }

      .cls-5 {
        fill: #2d4085;
      }

      .cls-6 {
        fill: #604038;
      }

      .cls-7 {
        fill: #e69082;
      }

      .cls-8 {
        fill: #ebc7b6;
      }

      .cls-9 {
        fill: #e6e6ea;
      }

      .cls-10 {
        fill: #d3362d;
      }

      .cls-11 {
        fill: #f1ddd8;
      }

      .cls-12 {
        fill: #fefefe;
      }
    </style>
  </defs>
  <path class="cls-3" d="m111.57,428.8c-45.47-39.33-76.93-101.95-81.2-161.89-4.88-61.51,15.21-122.38,55.75-168.9C221.51-57.39,454.44,36.72,469.73,233.17c5.58,71.72-27.37,152.14-84.35,197.68-29.96,26.06-70.97,42.43-110.08,47.18-64.32,7.82-113.91-10.96-163.73-49.23Z"/>
  <path class="cls-8" d="m175.75,218.33c3.21-35.58,35.98-31.38,62.48-39.41,16.06-4.87,34.08-9,48.16-18.54,25.06,25.69,28.77,35.41,38.37,69.91-.53,12.06-.02,23.81-.92,35.88-3.29,22.14-11.3,36.25-29.28,50.53-3.55,2.82-13.25,8.41-17.48,9.08-22.06,9.98-34.89,8.42-57.13.16-3.15-.62-10.74-4.85-13.44-6.85-18.36-13.62-28.24-27.75-32.33-49.78l1.67-1.23-.84-1.5c-.37-10.87-3.43-37.75.34-46.44l.73.97-.33-2.79Z"/>
  <path class="cls-2" d="m175.75,218.33c8.71-2.49,6.62-9.46,14.47-10.94,4.9-.92,34.69-1.12,37.28.17,14.92,7.42,84.03-8.41,89.68,5.8-.77,5.75-1.77,5.95-6.18,9.19-1.57,11.52-3.77,23.96-14,31.37-5.76,4.09-12.95,5.63-19.88,4.23-19.24-3.74-23.09-23.14-24.46-39.49l-11.86.05c-.97,11.43-2.68,24.07-11.88,31.77-10.68,8.93-31.16,10.71-40.19-1.48-6.29-8.48-4.99-16.01-7.18-25.54-.08-.35-4.76-1.95-5.49-2.34l-.33-2.79Z"/>
  <path class="cls-11" d="m188.13,219.76c2.73-3.8-1.03-2.84,1.67-6.21,7.1-2.24,28.25-1.08,36-.07,4.53.19,6.26.35,10.69,1.27-.07,11.5-1.3,23.61-9.96,32.24-8.97,8.93-25.36,9.35-33.77-.63-5.71-6.77-7.57-18.34-4.64-26.6Z"/>
  <path class="cls-2" d="m216.82,217.07c5.64.47,10.03,5.09,10.21,10.74.18,5.65-3.9,10.55-9.5,11.37-5.6.83-10.92-2.67-12.39-8.14-1.46-5.46,1.4-11.16,6.67-13.24,1.59-.63,3.31-.88,5.01-.74Z"/>
  <path class="cls-8" d="m188.13,219.76c2.73-3.8-1.03-2.84,1.67-6.21,7.1-2.24,28.25-1.08,36-.07-3.18.17-7.7-.1-9.95,1.77.3,1.58-.11,1.03.96,1.81-1.7-.14-3.42.11-5.01.74-4.83-2.03-20.08,3.69-23.68,1.95Z"/>
  <path class="cls-9" d="m301.7,213.3c7.34,12.21,4.44,24.61-4.53,35.14-30.62,23.52-47.23-24.1-37.4-34.48,12.8-.7,28.77-.42,41.93-.66Z"/>
  <path class="cls-2" d="m277.75,216.88c5.17-.2,9.28.23,12.45,4.92,1.76,2.61,2.3,5.87,1.48,8.91-1.26,4.66-3.77,6.41-7.76,8.5-16.04,2.46-17.97-12.6-6.17-22.33Z"/>
  <path class="cls-12" d="m266.68,289.86c-10.96,5.53-25.23,6.41-36.2.61-4.92-2.61-11.46-7.13-13.24-12.68l.88-.83c3.11.69,3.45,1.25,6.05,3.37l.78.65c4.97.02,48.01-.43,48.78-.17-2.88,3.12-4.63,5.16-8,7.81l.94,1.23Z"/>
  <path class="cls-6" d="m266.68,289.86c-10.96,5.53-25.23,6.41-36.2.61-4.92-2.61-11.46-7.13-13.24-12.68l.88-.83c3.11.69,3.45,1.25,6.05,3.37l.78.65c2.57,2.8,5.59,6.33,8.77,8.37,9.38,6.03,22.58,4.71,32.02-.72l.94,1.23Z"/>
  <path class="cls-2" d="m273.74,280.82c4.23-3.43,12.91-5.55,18.34-7.15-8.52,6.01-16.02,11.64-25.4,16.2l-.94-1.23c3.37-2.65,5.12-4.7,8-7.81Z"/>
  <path class="cls-5" d="m179.99,372.68c31.04,35.07,107.14,32.7,141.16,2.35.5-.45.99-.91,1.48-1.38,10.34,4.15,24.66,14.18,33.67,20.96,5.34,4.21,20.38,20.76,22.62,26.61,2.3,3.24,4.48,6.17,6.47,9.63-29.96,26.06-70.97,42.43-110.08,47.18-64.32,7.82-113.91-10.96-163.73-49.23l7.94-11.86c6.84-8.01,16.63-18.9,25.87-24.13,11.21-7.1,22.76-14.13,34.6-20.13Z"/>
  <path class="cls-10" d="m119.52,416.94c38.89,27.66,79.28,39.45,126.78,40.56,49.79,1.17,90.26-9.34,132.61-36.28,2.3,3.24,4.48,6.17,6.47,9.63-29.96,26.06-70.97,42.43-110.08,47.18-64.32,7.82-113.91-10.96-163.73-49.23l7.94-11.86Z"/>
  <path class="cls-10" d="m179.99,372.68c31.04,35.07,107.14,32.7,141.16,2.35.5-.45.99-.91,1.48-1.38,10.34,4.15,24.66,14.18,33.67,20.96-63.94,40.24-146.77,34.34-210.9-1.81,11.21-7.1,22.76-14.13,34.6-20.13Z"/>
  <path class="cls-1" d="m149.6,215.76c-3.7-31.35-3.55-69.99,16.93-97.15,24.17-32.06,95.05-51.94,130.12-27.1,5.74,4.07,9.42,11.98,12.09,18.41,39.67,3.65,45.83,45.8,43.72,78.36-.83,12.76-5.26,20.14-8.77,31.75-3.18-1.65-1.69-1.6-4.54-1.14-4.97,4.03-8.82,8.18-14.4,11.39-9.61-34.5-13.32-44.21-38.37-69.91-14.08,9.55-32.1,13.68-48.16,18.54-26.5,8.03-59.27,3.83-62.48,39.41l.33,2.79-.73-.97c-3.77,8.69-.71,35.56-.34,46.44-5-5.67-5.25-41.25-14.36-48.7-5.34-4.37-4.83-3.66-11.04-2.12Z"/>
  <path class="cls-12" d="m219.95,325.94c22.23,8.27,35.06,9.82,57.13-.16-.56,12.17-.87,20.32.4,32.57l7.03-4.84c10.37,5.7,27.42,15.6,38.12,20.14-.49.47-.98.92-1.48,1.38-34.02,30.35-110.12,32.73-141.16-2.35,8.97-5.47,22.49-12.64,32.29-16.78,2.97-1.25,4.74-.66,7.37.71.39-9.13.08-21.04.3-30.67Z"/>
  <path class="cls-4" d="m219.95,325.94c22.23,8.27,35.06,9.82,57.13-.16-.56,12.17-.87,20.32.4,32.57-7.03,9.61-19.63,19.88-27.17,29.92-8.88-7.63-23.96-21.92-30.66-31.66.39-9.13.08-21.04.3-30.67Z"/>
  <path class="cls-8" d="m149.6,215.76c6.21-1.54,5.7-2.25,11.04,2.12,9.11,7.45,9.36,43.03,14.36,48.7l.84,1.5-1.67,1.23c-.67-2.1-.46-1.59-1.53-3.46-3.72-1.65-8.83-1.35-13.27-1.66-15.53-9.7-21.18-33.72-9.78-48.43Z"/>
  <path class="cls-7" d="m324.76,230.28c5.57-3.21,9.43-7.36,14.4-11.39,2.85-.45,1.36-.51,4.54,1.14,5.09,15.41,3.82,39.2-14.63,44.73-1.73.51-3.47.98-5.23,1.4.9-12.08.39-23.82.92-35.88Z"/>
</svg>