<?xml version="1.0" encoding="UTF-8"?>
<svg id="Layer_1" data-name="Layer 1" xmlns="http://www.w3.org/2000/svg" xmlns:xlink="http://www.w3.org/1999/xlink" viewBox="0 0 500 500">
  <defs>
    <style>
      .cls-1 {
        fill: #207d9a;
      }

      .cls-2 {
        fill: #050605;
      }

      .cls-3 {
        fill: #e0b09f;
      }

      .cls-4 {
        fill: #281e1a;
      }

      .cls-5 {
        fill: #e69082;
      }

      .cls-6 {
        fill: #ebc7b6;
      }

      .cls-7 {
        fill: #d3362d;
      }

      .cls-8 {
        fill: url(#linear-gradient);
      }

      .cls-9 {
        fill: #f1ddd8;
      }

      .cls-10 {
        fill: #fefefe;
      }
    </style>
    <linearGradient id="linear-gradient" x1="178.01" y1="853.3" x2="151.41" y2="848.76" gradientTransform="translate(0 1089.57) scale(1 -1)" gradientUnits="userSpaceOnUse">
      <stop offset="0" stop-color="#c49682"/>
      <stop offset="1" stop-color="#e9bda9"/>
    </linearGradient>
  </defs>
  <path class="cls-7" d="m108.7,424.62c-6.52-5.48-12.71-11.35-18.52-17.58C5.24,315.71,11.51,163.01,103.52,78.98,193.36-3.07,332.17,7.6,412.23,97.86c74.97,84.54,76.92,213.14,3.98,299.62-7.99,9.5-17.83,17.9-27.05,26.23-3.42,3.26-6.66,5.71-10.35,8.64-76.49,60.8-196.52,59.81-270.11-7.74Z"/>
  <path class="cls-1" d="m299.94,352.14c9.16,3.63,20.02,6.98,28.7,11.01,21.13,12.51,36.11,22.71,50.51,43.74,4.05,5.92,6.6,11.49,10.01,16.83-3.42,3.26-6.66,5.71-10.35,8.64-76.49,60.8-196.52,59.81-270.11-7.74,12.62-28.9,34.86-48.68,63.92-60.62,9.65-4.44,18.55-7.58,28.58-10.81,2.63,1.85,5.94,6.89,9.54,8.53,29.64,13.54,64.24,12.27,89.21-9.58Z"/>
  <path class="cls-10" d="m299.94,352.14c9.16,3.63,20.02,6.98,28.7,11.01-11.03,11.33-38.75,19.96-54.09,22.73-33.32,6.02-74.73-.75-101.94-21.88,9.65-4.44,18.55-7.58,28.58-10.81,2.63,1.85,5.94,6.89,9.54,8.53,29.64,13.54,64.24,12.27,89.21-9.58Z"/>
  <path class="cls-4" d="m188.47,110.14c7.02-14.54,17.26-26.54,32.96-31.51,41.18-13.05,77.74,3.54,99.97,38.64,45.63,8.05,43.1,71.74,27.4,103.25-3.38-6.69-7.09-10.2-14.68-9.09-10.43,8.28-7.2,15.63-11.2,23.8.02-9.86.33-18.64-1.26-28.41-53.8-3.56-81.82-15.76-125.38-46.87-16.64,26.59-15.95,45.34-16.59,75.53-8.85-11.16-8.44-33.81-28.99-16.58-4.03-18.03-7.45-35.37-5.25-54.05,2.3-19.54,8.62-48.54,30.94-54.24,3.37-.86,8.53-.56,12.09-.46Z"/>
  <path class="cls-6" d="m196.27,159.94c43.57,31.11,71.58,43.31,125.38,46.87,1.58,9.76,1.28,18.54,1.26,28.41-1.81,6.07-1.38,18.35-2.55,25.8-4.03,20.4-13.35,36.81-30.93,48.51-5.02,3.37-10.52,5.99-16.3,7.77-15.27,4.3-30.81,3.42-45.97-.71-25.16-5.32-41.98-30.48-46.53-54.45-.05-8.34-.75-18.08-.95-26.67.63-30.18-.06-48.94,16.59-75.53Z"/>
  <path class="cls-5" d="m240.71,277.83c1.98-.04,5.81-.1,7.64-.53,8.31-1.95,22.48-10,30.66-6.92,1.73,2.03,1.31.88,1.24,3.61l-1.48,1.39-.22,2.2c-.91,20.38-28.12,35.4-43.96,19.46-5.76-5.8-9.76-11.86-10.47-20.17l-1.66-2.4c6.57.36,9.74,3.15,18.26,3.36Z"/>
  <path class="cls-10" d="m240.71,277.83c1.98-.04,5.81-.1,7.64-.53,8.31-1.95,22.48-10,30.66-6.92,1.73,2.03,1.31.88,1.24,3.61l-1.48,1.39-.22,2.2c-16.57,15.47-37.96,13.76-54.43-.71l-1.66-2.4c6.57.36,9.74,3.15,18.26,3.36Z"/>
  <path class="cls-9" d="m240.71,277.83c1.98-.04,5.81-.1,7.64-.53,8.31-1.95,22.48-10,30.66-6.92,1.73,2.03,1.31.88,1.24,3.61l-1.48,1.39c-11.93.45-26.06,4.93-38.05,2.45Z"/>
  <path class="cls-2" d="m206.79,214.65c3.91-9.47,20.91-7.01,23.87.07,3.89,7.85,8.12,17.45-1.7,22.64-6.96.67-11.32-.48-18.06-1.54-9.29-2.04-14.51-6.6-8.35-15.88l.98,3.38,1.32-.93c.56-1.83-.02-3.34-.17-5.33l2.1-2.41Z"/>
  <path class="cls-10" d="m206.79,214.65c-.37,4.85-.43,14.7,3.3,17.18,14.54,9.63,19.56-4.72,19.35-14.75-.01-.65-.04-1.31-.07-1.96l1.29-.4c3.89,7.85,8.12,17.45-1.7,22.64-6.96.67-11.32-.48-18.06-1.54-9.29-2.04-14.51-6.6-8.35-15.88l.98,3.38,1.32-.93c.56-1.83-.02-3.34-.17-5.33l2.1-2.41Z"/>
  <path class="cls-2" d="m279.05,208.92c6.68,1.51,14.86.79,16.61,9.1.9,5.27,3.79,5.89,2.6,11.5-.97,4.55-6.04,6.69-9.88,7.96l-12.13.33c-16.43-3.87-13.38-18.29-7.37-18.88l.1,2.37c.87-2.61,1.6-6.02,2.27-8.75l7.8-3.63Z"/>
  <path class="cls-10" d="m268.98,221.3c3.58,4.04,2.28,4.5,3.71,10.14,2.54,2.53,4.29,3.46,7.95,3.78,12.01,1.06,11.03-9.35,11.23-17.9l.71-.6,3.08,1.31c.9,5.27,3.79,5.89,2.6,11.5-.97,4.55-6.04,6.69-9.88,7.96l-12.13.33c-16.43-3.87-13.38-18.29-7.37-18.88l.1,2.37Z"/>
  <path class="cls-3" d="m210.9,235.82c6.74,1.06,11.11,2.21,18.06,1.54,1.85,6.04-2.53,13.3-8.24,15.9-5.73,2.55-12.26,2.61-18.03.16-2.89-1.23-3.77-2.16-4.87-5.04.74-6.53,7.8-7.82,13.09-12.56Z"/>
  <path class="cls-3" d="m276.25,237.81l12.13-.33c5.3,3.57,13.57.95,17.02,7.74,2.51,4.93-4.99,7.4-8.37,8.25-10.1,2.54-17.11,1.13-25.77-4.05,4.54-4.62,5.42-5.04,4.99-11.61Z"/>
  <path class="cls-2" d="m211.19,189.65c7.49-.57,21.21-.5,23.61,8.61-2.26,6.14-8.6,3.15-13.2,1.71-9.99-2.56-12.72-1.69-22.17,1.13l-.89-.99c1.39-7.22,6.5-8.17,12.66-10.45Z"/>
  <path class="cls-3" d="m263.95,254.54l1.07.55-.12,1.49c-6.23,7.68-14.11,12.46-23.26,6.45-.14-2.45-.57-1.72.43-3.27,11.06,5.21,13.91,2.89,21.88-5.22Z"/>
  <path class="cls-6" d="m227.16,316.59c15.16,4.13,30.7,5.01,45.97.71l-.21,8.6c.09,5.65.03,12.33.44,17.88,8.3,2.55,18.59,5.45,26.58,8.36-24.97,21.85-59.56,23.12-89.21,9.58-3.6-1.64-6.9-6.68-9.54-8.53,4.58-1.8,20.42-5.82,25.87-7.33l.11-15.16-.02-14.1Z"/>
  <path class="cls-3" d="m227.16,316.59c15.16,4.13,30.7,5.01,45.97.71l-.21,8.6c-15.11,8.01-29.17,11.68-45.75,4.79l-.02-14.1Z"/>
  <path class="cls-8" d="m150.69,218.9c20.55-17.23,20.14,5.41,28.99,16.58.19,8.59.9,18.32.95,26.67-11.99-.07-20.21-2.57-26.49-13.63-5.2-8.97-6.45-19.69-3.45-29.61Z"/>
  <path class="cls-3" d="m334.11,211.42c7.59-1.11,11.29,2.4,14.68,9.09.92,17.02-2.44,34.06-20.19,40.94l-8.24-.44c1.18-7.45.74-19.73,2.55-25.8,4-8.17.77-15.51,11.2-23.8Z"/>
  <path class="cls-6" d="m334.11,211.42c7.59-1.11,11.29,2.4,14.68,9.09.92,17.02-2.44,34.06-20.19,40.94l-1.85-.94c-1.02-1.82.76-3.62,2.32-6.09,8.15-12.84,10.18-17.9,12.14-32.67-2.78-3.83-5.25-5.82-7.09-10.33Z"/>
</svg>