<?xml version="1.0" encoding="UTF-8"?>
<svg id="Layer_1" data-name="Layer 1" xmlns="http://www.w3.org/2000/svg" xmlns:xlink="http://www.w3.org/1999/xlink" viewBox="0 0 500 500">
  <defs>
    <style>
      .cls-1 {
        fill: #f1c5ae;
      }

      .cls-2 {
        fill: #e0b09f;
      }

      .cls-3 {
        fill: #35356c;
      }

      .cls-4 {
        fill: #efd0c0;
      }

      .cls-5 {
        fill: #a36f51;
      }

      .cls-6 {
        fill: #f0bb97;
      }

      .cls-7 {
        fill: #e6e6ea;
      }

      .cls-8 {
        fill: #202252;
      }

      .cls-9 {
        fill: url(#linear-gradient);
      }

      .cls-10 {
        fill: #dc8d77;
      }

      .cls-11 {
        fill: #db7b56;
      }
    </style>
    <linearGradient id="linear-gradient" x1="357.87" y1="231.72" x2="135.22" y2="339.81" gradientTransform="translate(0 502) scale(1 -1)" gradientUnits="userSpaceOnUse">
      <stop offset="0" stop-color="#d9957b"/>
      <stop offset="1" stop-color="#efb79d"/>
    </linearGradient>
  </defs>
  <path class="cls-6" d="m235.7,56.86c.06,8.9-.37,30.27-3.87,38.18l-3.36,2.25-.76.33c-1.3-3.73-.89-18.86-.89-23.76l.4-7.72,1,.34,7.48-9.61Z"/>
  <path class="cls-11" d="m227.22,66.12l1,.34c1.39,5.68,1.8,25.27.24,30.82l-.76.33c-1.3-3.73-.89-18.86-.89-23.76l.4-7.72Z"/>
  <g>
    <path class="cls-3" d="m229.53,30.11c20.7-1.93,41.57-.92,61.99,2.99,99.49,19.04,173.27,103.33,178.97,204.47,5.7,101.14-58.14,193.18-154.86,223.29-43.28,13.47-89.65,13.3-132.83-.5C82.81,428.43,19.12,330.51,30.46,226.16,41.79,121.8,125.01,39.84,229.53,30.11Z"/>
    <path class="cls-9" d="m235.7,56.86c16.8-13.48,29.5-2.9,36.94,13.78l2.44-3.13c8.63-9.59,20.75-12.86,30.87-3.22,4.89,4.59,7.64,11.02,7.58,17.73,0,.78-.03,1.55-.07,2.32,1.16-.3,3.04-1.37,4.21-1.96,6.19-3.01,11.38-4.2,18.12-2.03,4.76,1.53,8.44,4.76,10.56,9.29,6.91,14.76-9.51,93.86-12.98,113.2-2.71,20.15-9.93,35.45-25.01,49.28,1.92,8.01,2.15,18.3,2.41,26.62.96,30.73,2.71,61.89,2.69,92.61-35.66-1.87-71.97-.81-107.7-1.66-5.79-.14-11.66.07-17.45.3,1.84-39.29,2.34-77.54,4.99-117.1-10.08-5.26-21.06-21.32-25.01-32.32-6.45-17.98-25.99-70.99-19.9-88.06,3.89-10.92,22.7-25.25,34.08-29.38,14.44-2.48,28.91-4.77,43.41-6.86-.06-4.6-.9-19.26.95-22.44l.4-7.72,1,.34,7.48-9.61Z"/>
    <path class="cls-1" d="m317.66,82.39c6.19-3.01,11.38-4.2,18.12-2.03,4.76,1.53,8.44,4.76,10.56,9.29,6.91,14.76-9.51,93.86-12.98,113.2-6.55,2.61-15.6,18.09-24.46,25.2-16.01,12.85-22.84,15.42-41.63,22.2-3.04-18.7-5.56-45.6-8.82-62.42,2.07-5.69,4.16-8.52,8.02-13.04,17.11-3.83,25.39-2.56,40.15-13.35,8.23-5.56,8.69-14.45,9.16-23.43.92-19.35,2.42-36.17,1.89-55.62Z"/>
    <path class="cls-1" d="m275.07,67.51c8.63-9.59,20.75-12.86,30.87-3.22,4.89,4.59,7.64,11.02,7.58,17.73,0,.78-.03,1.55-.07,2.32,1.16-.3,3.04-1.37,4.21-1.96.53,19.45-.97,36.27-1.89,55.62l-1.6-5.22c-2.77-1.01-1.35-.75-4.37-.22-2.84,2.99-6.82,7.68-10.53,9.01l-1.38-1.24c.88.16-14.65-7.74-14.97-7.93,4.2-.75,11.89-1.14,12.88-6.01-8.81,5.5-9.36,4.73-19.78,3.91l-2.27.55c-3.69-5.18.26-5.5-3.24-10.48l-.81.89c-1.17-4.3-2-8.1-2.93-12.46,1.44-5.37,2.23-19.22,2.74-25.37.79-5.75.91-7.49,3.12-12.79l2.44-3.13Z"/>
    <path class="cls-6" d="m317.66,82.39c.53,19.45-.97,36.27-1.89,55.62l-1.6-5.22c-2.77-1.01-1.35-.75-4.37-.22-2.84,2.99-6.82,7.68-10.53,9.01l-1.38-1.24c.24-.34,5.12-6.75,4.79-5.89,2.64-6.8-1.28-7.94,2.28-15.67.6-4.38,4.04-13.59,5.64-18.25.25-3.97,1.09-12.88,2.85-16.18,1.16-.3,3.04-1.37,4.21-1.96Z"/>
    <path class="cls-10" d="m310.61,100.53c2.38,4.66.69,17.8-3.13,21.13-2.25-1.03-1.27-.27-2.5-2.88.6-4.38,4.04-13.59,5.64-18.25Z"/>
    <path class="cls-2" d="m275.07,67.51c.34,1.55,1.24,5.14,1.33,6.55.45,19.52-1.12,35.46-.37,56.25l-2.27.55c-3.69-5.18.26-5.5-3.24-10.48l-.81.89c-1.17-4.3-2-8.1-2.93-12.46,1.44-5.37,2.23-19.22,2.74-25.37.79-5.75.91-7.49,3.12-12.79l2.44-3.13Z"/>
    <path class="cls-10" d="m269.52,83.42l1.63.96c.45,3.99.58,6.29.62,10.31-1.12,8.97-2.09,16.61-1.25,25.68l-.81.89c-1.17-4.3-2-8.1-2.93-12.46,1.44-5.37,2.23-19.22,2.74-25.37Z"/>
    <path class="cls-1" d="m235.7,56.86c16.8-13.48,29.5-2.9,36.94,13.78-2.21,5.29-2.33,7.04-3.12,12.79-.51,6.15-1.29,20-2.74,25.37-1.55,6.47-2.8,14.18-6.07,19.75-2.83,1.96-2.59,1.93-6.02,1.86-7.6-5.69-4.06-19.62-8.74-27.6-3.29-5.6-9.21-3.88-14.12-7.77l-3.36,2.25-.76.33c-1.3-3.73-.89-18.86-.89-23.76l.4-7.72,1,.34,7.48-9.61Z"/>
    <path class="cls-5" d="m272.15,139.59c3.7,16.74,28.18,16.42,34.34,10l1.31.34c-1.05,4.6-1.28,5.73-1.2,10.46l.03,1.05c-14.76,10.79-23.04,9.52-40.15,13.35-3.85,4.52-5.94,7.36-8.02,13.04l-1.66,2-1.62-.54c-1.11-2.44-2.24-4.87-3.39-7.29-7.8-16.39-12.08-17.38-28.56-23.21,23.11-2.86,30.85-4.16,48.93-19.2Z"/>
    <path class="cls-4" d="m232.09,112.9c18.95-2.72,16.23,18.79,6.76,27.91-10.17,9.79-20.24,9.59-33.14,9.53-11.27-3.7-20.21-13.92-12.66-26.59,5.18-8.7,28.32-9.75,39.04-10.84Z"/>
    <path class="cls-7" d="m188.31,370.02c5.79-.24,11.66-.44,17.45-.3,35.73.85,72.04-.21,107.7,1.66l2.17,89.49c-43.28,13.47-89.65,13.3-132.83-.5,1.68-2.34,5.05-81.93,5.5-90.35Z"/>
    <path class="cls-1" d="m182.46,103.15l.52-8.57c1.57-25.12.23-46.08,31.93-42.35,5.8,4.18,8.96,7.59,12.3,13.89l-.4,7.72c-1.85,3.17-1.01,17.84-.95,22.44-14.5,2.09-28.97,4.38-43.41,6.86Z"/>
  </g>
  <path class="cls-8" d="m229.53,30.11c20.7-1.93,41.57-.92,61.99,2.99l-1.24.93c-12.34-.91-23.29-2.02-35.8-1.51-4.43.18-22.06-.37-24.95-2.41Z"/>
</svg>